<?xml version="1.0" encoding="utf-8"?><svg xmlns="http://www.w3.org/2000/svg" xmlns:xlink="http://www.w3.org/1999/xlink"><symbol viewBox="0 0 50 28" id="Cart" xmlns="http://www.w3.org/2000/svg">
    <g clip-path="url(#cclip0_11515_256)">
        <circle cx="40" cy="14" r="10"/>
        <path d="M36.9281 18V16.6705L40.0346 13.794C40.2988 13.5384 40.5204 13.3082 40.6994 13.1037C40.8812 12.8991 41.019 12.6989 41.1127 12.5028C41.2065 12.304 41.2534 12.0895 41.2534 11.8594C41.2534 11.6037 41.1951 11.3835 41.0787 11.1989C40.9622 11.0114 40.8031 10.8679 40.6014 10.7685C40.3997 10.6662 40.171 10.6151 39.9153 10.6151C39.6483 10.6151 39.4153 10.669 39.2164 10.777C39.0176 10.8849 38.8642 11.0398 38.7562 11.2415C38.6483 11.4432 38.5943 11.6832 38.5943 11.9616H36.8429C36.8429 11.3906 36.9721 10.8949 37.2306 10.4744C37.4892 10.054 37.8514 9.72869 38.3173 9.49858C38.7832 9.26847 39.3201 9.15341 39.9281 9.15341C40.5531 9.15341 41.0971 9.2642 41.5602 9.4858C42.0261 9.70455 42.3883 10.0085 42.6468 10.3977C42.9054 10.7869 43.0346 11.233 43.0346 11.7358C43.0346 12.0653 42.9693 12.3906 42.8386 12.7116C42.7108 13.0327 42.4821 13.3892 42.1525 13.7812C41.823 14.1705 41.3585 14.6378 40.7591 15.1832L39.4849 16.4318V16.4915H43.1497V18H36.9281Z"/>
    </g>
    <path d="M10 8L10 9C10 10.6569 11.3431 12 13 12C14.6569 12 16 10.6569 16 9V8" stroke-width="1.5" stroke-linecap="round" stroke-linejoin="round"/>
    <path d="M16.6116 5H9.3886C7.43325 5 5.76449 6.41365 5.44303 8.3424L3.77636 18.3424C3.37001 20.7805 5.25018 23 7.72194 23H18.2783C20.75 23 22.6302 20.7805 22.2238 18.3424L20.5572 8.3424C20.2357 6.41365 18.5669 5 16.6116 5Z" stroke-width="1.5" stroke-linejoin="round"/>
    <defs>
        <clipPath id="cclip0_11515_256">
            <rect width="20" height="20" transform="translate(30 4)"/>
        </clipPath>
    </defs>
</symbol><symbol viewBox="0 0 20 20" id="Frame" xmlns="http://www.w3.org/2000/svg">
    <g clip-path="url(#eclip0_11515_257)">
        <circle cx="10" cy="10" r="10"/>
        <path d="M6.92809 14V12.6705L10.0346 9.79403C10.2988 9.53835 10.5204 9.30824 10.6994 9.10369C10.8812 8.89915 11.019 8.69886 11.1127 8.50284C11.2065 8.30398 11.2534 8.08949 11.2534 7.85938C11.2534 7.60369 11.1951 7.38352 11.0787 7.19886C10.9622 7.01136 10.8031 6.8679 10.6014 6.76847C10.3997 6.66619 10.171 6.61506 9.91531 6.61506C9.64826 6.61506 9.41531 6.66903 9.21644 6.77699C9.01758 6.88494 8.86417 7.03977 8.75621 7.24148C8.64826 7.44318 8.59428 7.68324 8.59428 7.96165H6.84286C6.84286 7.39062 6.97212 6.89489 7.23065 6.47443C7.48917 6.05398 7.85138 5.72869 8.31729 5.49858C8.7832 5.26847 9.32013 5.15341 9.92809 5.15341C10.5531 5.15341 11.0971 5.2642 11.5602 5.4858C12.0261 5.70455 12.3883 6.00852 12.6468 6.39773C12.9054 6.78693 13.0346 7.23295 13.0346 7.7358C13.0346 8.06534 12.9693 8.39062 12.8386 8.71165C12.7108 9.03267 12.4821 9.3892 12.1525 9.78125C11.823 10.1705 11.3585 10.6378 10.7591 11.1832L9.48491 12.4318V12.4915H13.1497V14H6.92809Z"/>
    </g>
    <defs>
        <clipPath id="eclip0_11515_257">
            <rect width="20" height="20"/>
        </clipPath>
    </defs>
</symbol><symbol viewBox="0 0 69 14" id="ShopNow" xmlns="http://www.w3.org/2000/svg">
    <path d="M6.67188 3.4929C6.61884 3.02225 6.40009 2.65767 6.01562 2.39915C5.63116 2.13731 5.14725 2.00639 4.56392 2.00639C4.14631 2.00639 3.78504 2.07268 3.48011 2.20526C3.17519 2.33452 2.93821 2.51349 2.76918 2.74219C2.60346 2.96757 2.5206 3.22443 2.5206 3.51278C2.5206 3.75473 2.57694 3.96354 2.68963 4.1392C2.80563 4.31487 2.95644 4.46236 3.14205 4.58168C3.33097 4.69768 3.53314 4.79545 3.74858 4.875C3.96402 4.95123 4.17116 5.0142 4.37003 5.06392L5.36435 5.32244C5.68916 5.40199 6.02225 5.50971 6.36364 5.6456C6.70502 5.78149 7.02154 5.96046 7.31321 6.18253C7.60488 6.40459 7.8402 6.67969 8.01918 7.00781C8.20147 7.33594 8.29261 7.72869 8.29261 8.18608C8.29261 8.76278 8.14347 9.27486 7.84517 9.7223C7.55019 10.1697 7.12098 10.5227 6.55753 10.7812C5.9974 11.0398 5.3196 11.169 4.52415 11.169C3.76184 11.169 3.10227 11.0481 2.54545 10.8061C1.98864 10.5642 1.55279 10.2211 1.23793 9.77699C0.923059 9.32955 0.749053 8.79924 0.715909 8.18608H2.2571C2.28693 8.55398 2.40625 8.86056 2.61506 9.10582C2.82718 9.34777 3.0973 9.52841 3.42543 9.64773C3.75687 9.76373 4.11979 9.82173 4.5142 9.82173C4.94839 9.82173 5.33452 9.75379 5.67259 9.6179C6.01397 9.47869 6.28243 9.28646 6.47798 9.04119C6.67353 8.79261 6.77131 8.5026 6.77131 8.17116C6.77131 7.86955 6.68513 7.62263 6.51278 7.4304C6.34375 7.23816 6.1134 7.07907 5.82173 6.95312C5.53338 6.82718 5.20691 6.71615 4.84233 6.62003L3.6392 6.2919C2.82386 6.06984 2.17756 5.74337 1.70028 5.3125C1.22633 4.88163 0.989347 4.31155 0.989347 3.60227C0.989347 3.01562 1.14844 2.50355 1.46662 2.06605C1.7848 1.62855 2.21567 1.28883 2.75923 1.04688C3.30279 0.80161 3.91596 0.678977 4.59872 0.678977C5.28812 0.678977 5.89631 0.799952 6.4233 1.0419C6.9536 1.28385 7.37121 1.61695 7.67614 2.04119C7.98106 2.46212 8.14015 2.94602 8.15341 3.4929H6.67188ZM11.4956 6.46591V11H10.0091V0.818182H11.4757V4.60653H11.5701C11.7491 4.19555 12.0225 3.86908 12.3904 3.62713C12.7583 3.38518 13.2389 3.2642 13.8322 3.2642C14.3559 3.2642 14.8133 3.37192 15.2044 3.58736C15.5988 3.80279 15.9037 4.12429 16.1191 4.55185C16.3379 4.97609 16.4473 5.50639 16.4473 6.14276V11H14.9608V6.32173C14.9608 5.7616 14.8166 5.32741 14.5282 5.01918C14.2399 4.70762 13.8388 4.55185 13.3251 4.55185C12.9738 4.55185 12.6589 4.62642 12.3805 4.77557C12.1054 4.92472 11.8883 5.14347 11.7292 5.43182C11.5734 5.71686 11.4956 6.06155 11.4956 6.46591ZM21.6475 11.1541C20.9316 11.1541 20.3069 10.9901 19.7733 10.6619C19.2396 10.3338 18.8253 9.87476 18.5304 9.2848C18.2354 8.69484 18.0879 8.00544 18.0879 7.21662C18.0879 6.42448 18.2354 5.73177 18.5304 5.13849C18.8253 4.54522 19.2396 4.08452 19.7733 3.75639C20.3069 3.42827 20.9316 3.2642 21.6475 3.2642C22.3635 3.2642 22.9882 3.42827 23.5218 3.75639C24.0555 4.08452 24.4698 4.54522 24.7647 5.13849C25.0597 5.73177 25.2072 6.42448 25.2072 7.21662C25.2072 8.00544 25.0597 8.69484 24.7647 9.2848C24.4698 9.87476 24.0555 10.3338 23.5218 10.6619C22.9882 10.9901 22.3635 11.1541 21.6475 11.1541ZM21.6525 9.90625C22.1165 9.90625 22.501 9.78362 22.8059 9.53835C23.1109 9.29309 23.3362 8.96662 23.4821 8.55895C23.6312 8.15128 23.7058 7.70218 23.7058 7.21165C23.7058 6.72443 23.6312 6.27699 23.4821 5.86932C23.3362 5.45833 23.1109 5.12855 22.8059 4.87997C22.501 4.63139 22.1165 4.5071 21.6525 4.5071C21.1852 4.5071 20.7974 4.63139 20.4892 4.87997C20.1842 5.12855 19.9572 5.45833 19.8081 5.86932C19.6622 6.27699 19.5893 6.72443 19.5893 7.21165C19.5893 7.70218 19.6622 8.15128 19.8081 8.55895C19.9572 8.96662 20.1842 9.29309 20.4892 9.53835C20.7974 9.78362 21.1852 9.90625 21.6525 9.90625ZM26.8665 13.8636V3.36364H28.3182V4.60156H28.4425C28.5286 4.44247 28.6529 4.25852 28.8153 4.04972C28.9777 3.84091 29.2031 3.65862 29.4915 3.50284C29.7798 3.34375 30.161 3.2642 30.6349 3.2642C31.2514 3.2642 31.8016 3.41998 32.2855 3.73153C32.7694 4.04309 33.1489 4.49219 33.424 5.07884C33.7024 5.66548 33.8416 6.37145 33.8416 7.19673C33.8416 8.02202 33.7041 8.72964 33.429 9.3196C33.1539 9.90625 32.776 10.3587 32.2955 10.6768C31.8149 10.9917 31.2663 11.1491 30.6499 11.1491C30.1858 11.1491 29.8063 11.0713 29.5114 10.9155C29.2197 10.7597 28.991 10.5774 28.8253 10.3686C28.6596 10.1598 28.532 9.9742 28.4425 9.81179H28.353V13.8636H26.8665ZM28.3232 7.18182C28.3232 7.71875 28.401 8.18939 28.5568 8.59375C28.7126 8.99811 28.938 9.31463 29.233 9.54332C29.5279 9.7687 29.8892 9.88139 30.3168 9.88139C30.7609 9.88139 31.1321 9.76373 31.4304 9.52841C31.7287 9.28977 31.9541 8.96662 32.1065 8.55895C32.2623 8.15128 32.3402 7.69223 32.3402 7.18182C32.3402 6.67803 32.264 6.22562 32.1115 5.82457C31.9624 5.42353 31.737 5.10701 31.4354 4.875C31.1371 4.64299 30.7642 4.52699 30.3168 4.52699C29.8859 4.52699 29.5213 4.63802 29.223 4.86009C28.928 5.08215 28.7043 5.39205 28.5518 5.78977C28.3994 6.1875 28.3232 6.65151 28.3232 7.18182ZM47.5495 0.818182V11H46.1376L40.9622 3.53267H40.8677V11H39.3315V0.818182H40.7534L45.9338 8.29545H46.0282V0.818182H47.5495ZM52.8878 11.1541C52.1719 11.1541 51.5471 10.9901 51.0135 10.6619C50.4799 10.3338 50.0656 9.87476 49.7706 9.2848C49.4756 8.69484 49.3281 8.00544 49.3281 7.21662C49.3281 6.42448 49.4756 5.73177 49.7706 5.13849C50.0656 4.54522 50.4799 4.08452 51.0135 3.75639C51.5471 3.42827 52.1719 3.2642 52.8878 3.2642C53.6037 3.2642 54.2285 3.42827 54.7621 3.75639C55.2957 4.08452 55.71 4.54522 56.005 5.13849C56.3 5.73177 56.4474 6.42448 56.4474 7.21662C56.4474 8.00544 56.3 8.69484 56.005 9.2848C55.71 9.87476 55.2957 10.3338 54.7621 10.6619C54.2285 10.9901 53.6037 11.1541 52.8878 11.1541ZM52.8928 9.90625C53.3568 9.90625 53.7412 9.78362 54.0462 9.53835C54.3511 9.29309 54.5765 8.96662 54.7223 8.55895C54.8714 8.15128 54.946 7.70218 54.946 7.21165C54.946 6.72443 54.8714 6.27699 54.7223 5.86932C54.5765 5.45833 54.3511 5.12855 54.0462 4.87997C53.7412 4.63139 53.3568 4.5071 52.8928 4.5071C52.4254 4.5071 52.0376 4.63139 51.7294 4.87997C51.4245 5.12855 51.1974 5.45833 51.0483 5.86932C50.9025 6.27699 50.8295 6.72443 50.8295 7.21165C50.8295 7.70218 50.9025 8.15128 51.0483 8.55895C51.1974 8.96662 51.4245 9.29309 51.7294 9.53835C52.0376 9.78362 52.4254 9.90625 52.8928 9.90625ZM59.5298 11L57.2827 3.36364H58.8189L60.3153 8.97159H60.3899L61.8913 3.36364H63.4276L64.919 8.94673H64.9936L66.4801 3.36364H68.0163L65.7741 11H64.2578L62.7067 5.48651H62.5923L61.0412 11H59.5298Z"/>
</symbol><symbol viewBox="0 0 91 24" id="ShopNow+arrow" xmlns="http://www.w3.org/2000/svg">
    <path d="M6.67188 9.4929C6.61884 9.02225 6.40009 8.65767 6.01562 8.39915C5.63116 8.13731 5.14725 8.00639 4.56392 8.00639C4.14631 8.00639 3.78504 8.07268 3.48011 8.20526C3.17519 8.33452 2.93821 8.51349 2.76918 8.74219C2.60346 8.96757 2.5206 9.22443 2.5206 9.51278C2.5206 9.75473 2.57694 9.96354 2.68963 10.1392C2.80563 10.3149 2.95644 10.4624 3.14205 10.5817C3.33097 10.6977 3.53314 10.7955 3.74858 10.875C3.96402 10.9512 4.17116 11.0142 4.37003 11.0639L5.36435 11.3224C5.68916 11.402 6.02225 11.5097 6.36364 11.6456C6.70502 11.7815 7.02154 11.9605 7.31321 12.1825C7.60488 12.4046 7.8402 12.6797 8.01918 13.0078C8.20147 13.3359 8.29261 13.7287 8.29261 14.1861C8.29261 14.7628 8.14347 15.2749 7.84517 15.7223C7.55019 16.1697 7.12098 16.5227 6.55753 16.7812C5.9974 17.0398 5.3196 17.169 4.52415 17.169C3.76184 17.169 3.10227 17.0481 2.54545 16.8061C1.98864 16.5642 1.55279 16.2211 1.23793 15.777C0.923059 15.3295 0.749053 14.7992 0.715909 14.1861H2.2571C2.28693 14.554 2.40625 14.8606 2.61506 15.1058C2.82718 15.3478 3.0973 15.5284 3.42543 15.6477C3.75687 15.7637 4.11979 15.8217 4.5142 15.8217C4.94839 15.8217 5.33452 15.7538 5.67259 15.6179C6.01397 15.4787 6.28243 15.2865 6.47798 15.0412C6.67353 14.7926 6.77131 14.5026 6.77131 14.1712C6.77131 13.8696 6.68513 13.6226 6.51278 13.4304C6.34375 13.2382 6.1134 13.0791 5.82173 12.9531C5.53338 12.8272 5.20691 12.7161 4.84233 12.62L3.6392 12.2919C2.82386 12.0698 2.17756 11.7434 1.70028 11.3125C1.22633 10.8816 0.989347 10.3116 0.989347 9.60227C0.989347 9.01562 1.14844 8.50355 1.46662 8.06605C1.7848 7.62855 2.21567 7.28883 2.75923 7.04688C3.30279 6.80161 3.91596 6.67898 4.59872 6.67898C5.28812 6.67898 5.89631 6.79995 6.4233 7.0419C6.9536 7.28385 7.37121 7.61695 7.67614 8.04119C7.98106 8.46212 8.14015 8.94602 8.15341 9.4929H6.67188ZM11.4956 12.4659V17H10.0091V6.81818H11.4757V10.6065H11.5701C11.7491 10.1955 12.0225 9.86908 12.3904 9.62713C12.7583 9.38518 13.2389 9.2642 13.8322 9.2642C14.3559 9.2642 14.8133 9.37192 15.2044 9.58736C15.5988 9.80279 15.9037 10.1243 16.1191 10.5518C16.3379 10.9761 16.4473 11.5064 16.4473 12.1428V17H14.9608V12.3217C14.9608 11.7616 14.8166 11.3274 14.5282 11.0192C14.2399 10.7076 13.8388 10.5518 13.3251 10.5518C12.9738 10.5518 12.6589 10.6264 12.3805 10.7756C12.1054 10.9247 11.8883 11.1435 11.7292 11.4318C11.5734 11.7169 11.4956 12.0616 11.4956 12.4659ZM21.6475 17.1541C20.9316 17.1541 20.3069 16.9901 19.7733 16.6619C19.2396 16.3338 18.8253 15.8748 18.5304 15.2848C18.2354 14.6948 18.0879 14.0054 18.0879 13.2166C18.0879 12.4245 18.2354 11.7318 18.5304 11.1385C18.8253 10.5452 19.2396 10.0845 19.7733 9.75639C20.3069 9.42827 20.9316 9.2642 21.6475 9.2642C22.3635 9.2642 22.9882 9.42827 23.5218 9.75639C24.0555 10.0845 24.4698 10.5452 24.7647 11.1385C25.0597 11.7318 25.2072 12.4245 25.2072 13.2166C25.2072 14.0054 25.0597 14.6948 24.7647 15.2848C24.4698 15.8748 24.0555 16.3338 23.5218 16.6619C22.9882 16.9901 22.3635 17.1541 21.6475 17.1541ZM21.6525 15.9062C22.1165 15.9062 22.501 15.7836 22.8059 15.5384C23.1109 15.2931 23.3362 14.9666 23.4821 14.5589C23.6312 14.1513 23.7058 13.7022 23.7058 13.2116C23.7058 12.7244 23.6312 12.277 23.4821 11.8693C23.3362 11.4583 23.1109 11.1286 22.8059 10.88C22.501 10.6314 22.1165 10.5071 21.6525 10.5071C21.1852 10.5071 20.7974 10.6314 20.4892 10.88C20.1842 11.1286 19.9572 11.4583 19.8081 11.8693C19.6622 12.277 19.5893 12.7244 19.5893 13.2116C19.5893 13.7022 19.6622 14.1513 19.8081 14.5589C19.9572 14.9666 20.1842 15.2931 20.4892 15.5384C20.7974 15.7836 21.1852 15.9062 21.6525 15.9062ZM26.8665 19.8636V9.36364H28.3182V10.6016H28.4425C28.5286 10.4425 28.6529 10.2585 28.8153 10.0497C28.9777 9.84091 29.2031 9.65862 29.4915 9.50284C29.7798 9.34375 30.161 9.2642 30.6349 9.2642C31.2514 9.2642 31.8016 9.41998 32.2855 9.73153C32.7694 10.0431 33.1489 10.4922 33.424 11.0788C33.7024 11.6655 33.8416 12.3714 33.8416 13.1967C33.8416 14.022 33.7041 14.7296 33.429 15.3196C33.1539 15.9062 32.776 16.3587 32.2955 16.6768C31.8149 16.9917 31.2663 17.1491 30.6499 17.1491C30.1858 17.1491 29.8063 17.0713 29.5114 16.9155C29.2197 16.7597 28.991 16.5774 28.8253 16.3686C28.6596 16.1598 28.532 15.9742 28.4425 15.8118H28.353V19.8636H26.8665ZM28.3232 13.1818C28.3232 13.7187 28.401 14.1894 28.5568 14.5938C28.7126 14.9981 28.938 15.3146 29.233 15.5433C29.5279 15.7687 29.8892 15.8814 30.3168 15.8814C30.7609 15.8814 31.1321 15.7637 31.4304 15.5284C31.7287 15.2898 31.9541 14.9666 32.1065 14.5589C32.2623 14.1513 32.3402 13.6922 32.3402 13.1818C32.3402 12.678 32.264 12.2256 32.1115 11.8246C31.9624 11.4235 31.737 11.107 31.4354 10.875C31.1371 10.643 30.7642 10.527 30.3168 10.527C29.8859 10.527 29.5213 10.638 29.223 10.8601C28.928 11.0821 28.7043 11.392 28.5518 11.7898C28.3994 12.1875 28.3232 12.6515 28.3232 13.1818ZM47.5495 6.81818V17H46.1376L40.9622 9.53267H40.8677V17H39.3315V6.81818H40.7534L45.9338 14.2955H46.0282V6.81818H47.5495ZM52.8878 17.1541C52.1719 17.1541 51.5471 16.9901 51.0135 16.6619C50.4799 16.3338 50.0656 15.8748 49.7706 15.2848C49.4756 14.6948 49.3281 14.0054 49.3281 13.2166C49.3281 12.4245 49.4756 11.7318 49.7706 11.1385C50.0656 10.5452 50.4799 10.0845 51.0135 9.75639C51.5471 9.42827 52.1719 9.2642 52.8878 9.2642C53.6037 9.2642 54.2285 9.42827 54.7621 9.75639C55.2957 10.0845 55.71 10.5452 56.005 11.1385C56.3 11.7318 56.4474 12.4245 56.4474 13.2166C56.4474 14.0054 56.3 14.6948 56.005 15.2848C55.71 15.8748 55.2957 16.3338 54.7621 16.6619C54.2285 16.9901 53.6037 17.1541 52.8878 17.1541ZM52.8928 15.9062C53.3568 15.9062 53.7412 15.7836 54.0462 15.5384C54.3511 15.2931 54.5765 14.9666 54.7223 14.5589C54.8714 14.1513 54.946 13.7022 54.946 13.2116C54.946 12.7244 54.8714 12.277 54.7223 11.8693C54.5765 11.4583 54.3511 11.1286 54.0462 10.88C53.7412 10.6314 53.3568 10.5071 52.8928 10.5071C52.4254 10.5071 52.0376 10.6314 51.7294 10.88C51.4245 11.1286 51.1974 11.4583 51.0483 11.8693C50.9025 12.277 50.8295 12.7244 50.8295 13.2116C50.8295 13.7022 50.9025 14.1513 51.0483 14.5589C51.1974 14.9666 51.4245 15.2931 51.7294 15.5384C52.0376 15.7836 52.4254 15.9062 52.8928 15.9062ZM59.5298 17L57.2827 9.36364H58.8189L60.3153 14.9716H60.3899L61.8913 9.36364H63.4276L64.919 14.9467H64.9936L66.4801 9.36364H68.0163L65.7741 17H64.2578L62.7067 11.4865H62.5923L61.0412 17H59.5298Z"/>
    <path d="M76.75 12H87.25" stroke-width="1.125" stroke-linecap="round" stroke-linejoin="round"/>
    <path d="M82.75 16.5L87.25 12" stroke-width="1.125" stroke-linecap="round" stroke-linejoin="round"/>
    <path d="M82.75 7.5L87.25 12" stroke-width="1.125" stroke-linecap="round" stroke-linejoin="round"/>
</symbol><symbol viewBox="0 0 69 14" id="ShopNow_2" xmlns="http://www.w3.org/2000/svg">
    <path d="M6.67188 3.4929C6.61884 3.02225 6.40009 2.65767 6.01562 2.39915C5.63116 2.13731 5.14725 2.00639 4.56392 2.00639C4.14631 2.00639 3.78504 2.07268 3.48011 2.20526C3.17519 2.33452 2.93821 2.51349 2.76918 2.74219C2.60346 2.96757 2.5206 3.22443 2.5206 3.51278C2.5206 3.75473 2.57694 3.96354 2.68963 4.1392C2.80563 4.31487 2.95644 4.46236 3.14205 4.58168C3.33097 4.69768 3.53314 4.79545 3.74858 4.875C3.96402 4.95123 4.17116 5.0142 4.37003 5.06392L5.36435 5.32244C5.68916 5.40199 6.02225 5.50971 6.36364 5.6456C6.70502 5.78149 7.02154 5.96046 7.31321 6.18253C7.60488 6.40459 7.8402 6.67969 8.01918 7.00781C8.20147 7.33594 8.29261 7.72869 8.29261 8.18608C8.29261 8.76278 8.14347 9.27486 7.84517 9.7223C7.55019 10.1697 7.12098 10.5227 6.55753 10.7812C5.9974 11.0398 5.3196 11.169 4.52415 11.169C3.76184 11.169 3.10227 11.0481 2.54545 10.8061C1.98864 10.5642 1.55279 10.2211 1.23793 9.77699C0.923059 9.32955 0.749053 8.79924 0.715909 8.18608H2.2571C2.28693 8.55398 2.40625 8.86056 2.61506 9.10582C2.82718 9.34777 3.0973 9.52841 3.42543 9.64773C3.75687 9.76373 4.11979 9.82173 4.5142 9.82173C4.94839 9.82173 5.33452 9.75379 5.67259 9.6179C6.01397 9.47869 6.28243 9.28646 6.47798 9.04119C6.67353 8.79261 6.77131 8.5026 6.77131 8.17116C6.77131 7.86955 6.68513 7.62263 6.51278 7.4304C6.34375 7.23816 6.1134 7.07907 5.82173 6.95312C5.53338 6.82718 5.20691 6.71615 4.84233 6.62003L3.6392 6.2919C2.82386 6.06984 2.17756 5.74337 1.70028 5.3125C1.22633 4.88163 0.989347 4.31155 0.989347 3.60227C0.989347 3.01562 1.14844 2.50355 1.46662 2.06605C1.7848 1.62855 2.21567 1.28883 2.75923 1.04688C3.30279 0.80161 3.91596 0.678977 4.59872 0.678977C5.28812 0.678977 5.89631 0.799952 6.4233 1.0419C6.9536 1.28385 7.37121 1.61695 7.67614 2.04119C7.98106 2.46212 8.14015 2.94602 8.15341 3.4929H6.67188ZM11.4956 6.46591V11H10.0091V0.818182H11.4757V4.60653H11.5701C11.7491 4.19555 12.0225 3.86908 12.3904 3.62713C12.7583 3.38518 13.2389 3.2642 13.8322 3.2642C14.3559 3.2642 14.8133 3.37192 15.2044 3.58736C15.5988 3.80279 15.9037 4.12429 16.1191 4.55185C16.3379 4.97609 16.4473 5.50639 16.4473 6.14276V11H14.9608V6.32173C14.9608 5.7616 14.8166 5.32741 14.5282 5.01918C14.2399 4.70762 13.8388 4.55185 13.3251 4.55185C12.9738 4.55185 12.6589 4.62642 12.3805 4.77557C12.1054 4.92472 11.8883 5.14347 11.7292 5.43182C11.5734 5.71686 11.4956 6.06155 11.4956 6.46591ZM21.6475 11.1541C20.9316 11.1541 20.3069 10.9901 19.7733 10.6619C19.2396 10.3338 18.8253 9.87476 18.5304 9.2848C18.2354 8.69484 18.0879 8.00544 18.0879 7.21662C18.0879 6.42448 18.2354 5.73177 18.5304 5.13849C18.8253 4.54522 19.2396 4.08452 19.7733 3.75639C20.3069 3.42827 20.9316 3.2642 21.6475 3.2642C22.3635 3.2642 22.9882 3.42827 23.5218 3.75639C24.0555 4.08452 24.4698 4.54522 24.7647 5.13849C25.0597 5.73177 25.2072 6.42448 25.2072 7.21662C25.2072 8.00544 25.0597 8.69484 24.7647 9.2848C24.4698 9.87476 24.0555 10.3338 23.5218 10.6619C22.9882 10.9901 22.3635 11.1541 21.6475 11.1541ZM21.6525 9.90625C22.1165 9.90625 22.501 9.78362 22.8059 9.53835C23.1109 9.29309 23.3362 8.96662 23.4821 8.55895C23.6312 8.15128 23.7058 7.70218 23.7058 7.21165C23.7058 6.72443 23.6312 6.27699 23.4821 5.86932C23.3362 5.45833 23.1109 5.12855 22.8059 4.87997C22.501 4.63139 22.1165 4.5071 21.6525 4.5071C21.1852 4.5071 20.7974 4.63139 20.4892 4.87997C20.1842 5.12855 19.9572 5.45833 19.8081 5.86932C19.6622 6.27699 19.5893 6.72443 19.5893 7.21165C19.5893 7.70218 19.6622 8.15128 19.8081 8.55895C19.9572 8.96662 20.1842 9.29309 20.4892 9.53835C20.7974 9.78362 21.1852 9.90625 21.6525 9.90625ZM26.8665 13.8636V3.36364H28.3182V4.60156H28.4425C28.5286 4.44247 28.6529 4.25852 28.8153 4.04972C28.9777 3.84091 29.2031 3.65862 29.4915 3.50284C29.7798 3.34375 30.161 3.2642 30.6349 3.2642C31.2514 3.2642 31.8016 3.41998 32.2855 3.73153C32.7694 4.04309 33.1489 4.49219 33.424 5.07884C33.7024 5.66548 33.8416 6.37145 33.8416 7.19673C33.8416 8.02202 33.7041 8.72964 33.429 9.3196C33.1539 9.90625 32.776 10.3587 32.2955 10.6768C31.8149 10.9917 31.2663 11.1491 30.6499 11.1491C30.1858 11.1491 29.8063 11.0713 29.5114 10.9155C29.2197 10.7597 28.991 10.5774 28.8253 10.3686C28.6596 10.1598 28.532 9.9742 28.4425 9.81179H28.353V13.8636H26.8665ZM28.3232 7.18182C28.3232 7.71875 28.401 8.18939 28.5568 8.59375C28.7126 8.99811 28.938 9.31463 29.233 9.54332C29.5279 9.7687 29.8892 9.88139 30.3168 9.88139C30.7609 9.88139 31.1321 9.76373 31.4304 9.52841C31.7287 9.28977 31.9541 8.96662 32.1065 8.55895C32.2623 8.15128 32.3402 7.69223 32.3402 7.18182C32.3402 6.67803 32.264 6.22562 32.1115 5.82457C31.9624 5.42353 31.737 5.10701 31.4354 4.875C31.1371 4.64299 30.7642 4.52699 30.3168 4.52699C29.8859 4.52699 29.5213 4.63802 29.223 4.86009C28.928 5.08215 28.7043 5.39205 28.5518 5.78977C28.3994 6.1875 28.3232 6.65151 28.3232 7.18182ZM47.5495 0.818182V11H46.1376L40.9622 3.53267H40.8677V11H39.3315V0.818182H40.7534L45.9338 8.29545H46.0282V0.818182H47.5495ZM52.8878 11.1541C52.1719 11.1541 51.5471 10.9901 51.0135 10.6619C50.4799 10.3338 50.0656 9.87476 49.7706 9.2848C49.4756 8.69484 49.3281 8.00544 49.3281 7.21662C49.3281 6.42448 49.4756 5.73177 49.7706 5.13849C50.0656 4.54522 50.4799 4.08452 51.0135 3.75639C51.5471 3.42827 52.1719 3.2642 52.8878 3.2642C53.6037 3.2642 54.2285 3.42827 54.7621 3.75639C55.2957 4.08452 55.71 4.54522 56.005 5.13849C56.3 5.73177 56.4474 6.42448 56.4474 7.21662C56.4474 8.00544 56.3 8.69484 56.005 9.2848C55.71 9.87476 55.2957 10.3338 54.7621 10.6619C54.2285 10.9901 53.6037 11.1541 52.8878 11.1541ZM52.8928 9.90625C53.3568 9.90625 53.7412 9.78362 54.0462 9.53835C54.3511 9.29309 54.5765 8.96662 54.7223 8.55895C54.8714 8.15128 54.946 7.70218 54.946 7.21165C54.946 6.72443 54.8714 6.27699 54.7223 5.86932C54.5765 5.45833 54.3511 5.12855 54.0462 4.87997C53.7412 4.63139 53.3568 4.5071 52.8928 4.5071C52.4254 4.5071 52.0376 4.63139 51.7294 4.87997C51.4245 5.12855 51.1974 5.45833 51.0483 5.86932C50.9025 6.27699 50.8295 6.72443 50.8295 7.21165C50.8295 7.70218 50.9025 8.15128 51.0483 8.55895C51.1974 8.96662 51.4245 9.29309 51.7294 9.53835C52.0376 9.78362 52.4254 9.90625 52.8928 9.90625ZM59.5298 11L57.2827 3.36364H58.8189L60.3153 8.97159H60.3899L61.8913 3.36364H63.4276L64.919 8.94673H64.9936L66.4801 3.36364H68.0163L65.7741 11H64.2578L62.7067 5.48651H62.5923L61.0412 11H59.5298Z"/>
</symbol><symbol viewBox="0 0 18 18" id="arrow-right" xmlns="http://www.w3.org/2000/svg">
    <path d="M3.75 9H14.25" stroke-width="1.125" stroke-linecap="round" stroke-linejoin="round"/>
    <path d="M9.75 13.5L14.25 9" stroke-width="1.125" stroke-linecap="round" stroke-linejoin="round"/>
    <path d="M9.75 4.5L14.25 9" stroke-width="1.125" stroke-linecap="round" stroke-linejoin="round"/>
</symbol><symbol viewBox="0 0 24 24" id="bag" xmlns="http://www.w3.org/2000/svg">
    <path d="M9 6L9 7C9 8.65685 10.3431 10 12 10C13.6569 10 15 8.65685 15 7V6" stroke-width="1.5" stroke-linecap="round" stroke-linejoin="round"/>
    <path d="M15.6116 3H8.3886C6.43325 3 4.76449 4.41365 4.44303 6.3424L2.77636 16.3424C2.37001 18.7805 4.25018 21 6.72194 21H17.2783C19.75 21 21.6302 18.7805 21.2238 16.3424L19.5572 6.3424C19.2357 4.41365 17.5669 3 15.6116 3Z" stroke-width="1.5" stroke-linejoin="round"/>
</symbol><symbol viewBox="0 0 20 20" id="close" xmlns="http://www.w3.org/2000/svg">
    <path fill-rule="evenodd" clip-rule="evenodd" d="M15.4419 5.44194C15.686 5.19786 15.686 4.80214 15.4419 4.55806C15.1979 4.31398 14.8021 4.31398 14.5581 4.55806L10 9.11612L5.44194 4.55806C5.19786 4.31398 4.80214 4.31398 4.55806 4.55806C4.31398 4.80214 4.31398 5.19786 4.55806 5.44194L9.11612 10L4.55806 14.5581C4.31398 14.8021 4.31398 15.1979 4.55806 15.4419C4.80214 15.686 5.19786 15.686 5.44194 15.4419L10 10.8839L14.5581 15.4419C14.8021 15.686 15.1979 15.686 15.4419 15.4419C15.686 15.1979 15.686 14.8021 15.4419 14.5581L10.8839 10L15.4419 5.44194Z"/>
</symbol><symbol viewBox="0 0 24 25" id="heart" xmlns="http://www.w3.org/2000/svg">
    <path fill-rule="evenodd" clip-rule="evenodd" d="M12.6924 7.58373C12.3055 7.95505 11.6945 7.95505 11.3076 7.58373L10.6152 6.91927C9.80477 6.14154 8.70994 5.66667 7.5 5.66667C5.01472 5.66667 3 7.68139 3 10.1667C3 12.5493 4.28979 14.5167 6.15176 16.1332C8.01532 17.7511 10.2434 18.8241 11.5746 19.3717C11.853 19.4862 12.147 19.4862 12.4254 19.3717C13.7566 18.8241 15.9847 17.7511 17.8482 16.1332C19.7102 14.5167 21 12.5493 21 10.1667C21 7.68139 18.9853 5.66667 16.5 5.66667C15.2901 5.66667 14.1952 6.14154 13.3848 6.91927L12.6924 7.58373ZM12 5.47624C10.8321 4.35548 9.24649 3.66667 7.5 3.66667C3.91015 3.66667 1 6.57682 1 10.1667C1 16.5349 7.97034 20.0517 10.8138 21.2214C11.5796 21.5364 12.4204 21.5364 13.1862 21.2214C16.0297 20.0517 23 16.5349 23 10.1667C23 6.57682 20.0899 3.66667 16.5 3.66667C14.7535 3.66667 13.1679 4.35548 12 5.47624Z"/>
</symbol><symbol viewBox="0 0 24 24" id="id-card-line" xmlns="http://www.w3.org/2000/svg">
    <path d="M3 6H21V18H3V6ZM2 4C1.44772 4 1 4.44772 1 5V19C1 19.5523 1.44772 20 2 20H22C22.5523 20 23 19.5523 23 19V5C23 4.44772 22.5523 4 22 4H2ZM13 8H19V10H13V8ZM18 12H13V14H18V12ZM10.5 10C10.5 11.3807 9.38071 12.5 8 12.5C6.61929 12.5 5.5 11.3807 5.5 10C5.5 8.61929 6.61929 7.5 8 7.5C9.38071 7.5 10.5 8.61929 10.5 10ZM8 13.5C6.067 13.5 4.5 15.067 4.5 17H11.5C11.5 15.067 9.933 13.5 8 13.5Z"/>
</symbol><symbol viewBox="0 0 144.000000 144.000000" preserveAspectRatio="xMidYMid meet" id="r" xmlns="http://www.w3.org/2000/svg">
    <g transform="translate(0.000000,144.000000) scale(0.100000,-0.100000)">
        <path d="M405 1166 c-57 -18 -83 -36 -108 -76 -22 -34 -22 -43 -25 -432 l-3 -398 75 0 76 0 1 218 c2 527 1 516 56 541 16 7 142 11 358 11 l335 0 0 75 0 75 -362 -1 c-263 0 -374 -4 -403 -13z"/>
        <path d="M677 824 c-4 -4 -7 -33 -7 -65 0 -78 26 -123 189 -329 l135 -170 88 0 c48 0 88 4 88 9 0 5 -65 90 -144 189 -79 99 -150 191 -157 203 -7 13 -15 56 -18 94 l-6 70 -80 3 c-45 1 -84 0 -88 -4z"/>
    </g>
</symbol><symbol viewBox="0 0 24 24" id="search" xmlns="http://www.w3.org/2000/svg">
    <path d="M18.5 18.5L22 22M21 11.5C21 6.25329 16.7467 2 11.5 2C6.25329 2 2 6.25329 2 11.5C2 16.7467 6.25329 21 11.5 21C16.7467 21 21 16.7467 21 11.5Z" stroke-width="1.5" stroke-linecap="round" stroke-linejoin="round"/>
</symbol><symbol viewBox="0 0 30 30" id="ticket-percent" xmlns="http://www.w3.org/2000/svg">
    <g filter="url(#mfilter0_d_11502_602)">
        <path d="M24.0181 14.8356L23.7727 15.5444H23.7727L24.0181 14.8356ZM24.0181 9.16437L24.2635 9.8731V9.8731L24.0181 9.16437ZM5.98189 14.8356L6.22727 15.5444H6.22727L5.98189 14.8356ZM5.98189 9.16437L5.73652 9.8731L5.73652 9.8731L5.98189 9.16437ZM18.5303 9.53033C18.8232 9.23744 18.8232 8.76256 18.5303 8.46967C18.2374 8.17678 17.7626 8.17678 17.4697 8.46967L18.5303 9.53033ZM11.4697 14.4697C11.1768 14.7626 11.1768 15.2374 11.4697 15.5303C11.7626 15.8232 12.2374 15.8232 12.5303 15.5303L11.4697 14.4697ZM9 20.25C7.20507 20.25 5.75 18.7949 5.75 17H4.25C4.25 19.6234 6.37665 21.75 9 21.75V20.25ZM24.25 17C24.25 18.7949 22.7949 20.25 21 20.25V21.75C23.6234 21.75 25.75 19.6234 25.75 17H24.25ZM21 3.75C22.7949 3.75 24.25 5.20507 24.25 7H25.75C25.75 4.37665 23.6234 2.25 21 2.25V3.75ZM9 2.25C6.37665 2.25 4.25 4.37665 4.25 7H5.75C5.75 5.20507 7.20507 3.75 9 3.75V2.25ZM24.2635 14.1269C23.3815 13.8216 22.75 12.9836 22.75 12H21.25C21.25 13.6424 22.3054 15.0363 23.7727 15.5444L24.2635 14.1269ZM22.75 12C22.75 11.0164 23.3815 10.1784 24.2635 9.8731L23.7727 8.45565C22.3054 8.96367 21.25 10.3576 21.25 12H22.75ZM7.25 12C7.25 12.9836 6.61845 13.8216 5.73652 14.1269L6.22727 15.5444C7.69461 15.0363 8.75 13.6424 8.75 12H7.25ZM5.73652 9.8731C6.61845 10.1784 7.25 11.0164 7.25 12H8.75C8.75 10.3576 7.69462 8.96367 6.22727 8.45565L5.73652 9.8731ZM25.75 8V7H24.25V8H25.75ZM24.25 16V17H25.75V16H24.25ZM4.25 16V17H5.75V16H4.25ZM5.75 8V7H4.25V8H5.75ZM21 20.25H9V21.75H21V20.25ZM21 2.25H9V3.75H21V2.25ZM5.73652 14.1269C5.05785 14.3619 4.25 14.9975 4.25 16H5.75C5.75 15.9441 5.77081 15.8708 5.85172 15.7813C5.9366 15.6873 6.06974 15.5989 6.22727 15.5444L5.73652 14.1269ZM24.2635 9.8731C24.9422 9.63813 25.75 9.00246 25.75 8H24.25C24.25 8.05587 24.2292 8.12917 24.1483 8.21871C24.0634 8.31265 23.9303 8.40111 23.7727 8.45565L24.2635 9.8731ZM6.22727 8.45565C6.06974 8.40111 5.9366 8.31265 5.85172 8.21871C5.77081 8.12917 5.75 8.05587 5.75 8H4.25C4.25 9.00246 5.05785 9.63813 5.73652 9.8731L6.22727 8.45565ZM23.7727 15.5444C23.9303 15.5989 24.0634 15.6873 24.1483 15.7813C24.2292 15.8708 24.25 15.9441 24.25 16H25.75C25.75 14.9975 24.9422 14.3619 24.2635 14.1269L23.7727 15.5444ZM12.25 9C12.25 9.13807 12.1381 9.25 12 9.25V10.75C12.9665 10.75 13.75 9.9665 13.75 9H12.25ZM12 9.25C11.8619 9.25 11.75 9.13807 11.75 9H10.25C10.25 9.9665 11.0335 10.75 12 10.75V9.25ZM11.75 9C11.75 8.86193 11.8619 8.75 12 8.75V7.25C11.0335 7.25 10.25 8.0335 10.25 9H11.75ZM12 8.75C12.1381 8.75 12.25 8.86193 12.25 9H13.75C13.75 8.0335 12.9665 7.25 12 7.25V8.75ZM18.25 15C18.25 15.1381 18.1381 15.25 18 15.25V16.75C18.9665 16.75 19.75 15.9665 19.75 15H18.25ZM18 15.25C17.8619 15.25 17.75 15.1381 17.75 15H16.25C16.25 15.9665 17.0335 16.75 18 16.75V15.25ZM17.75 15C17.75 14.8619 17.8619 14.75 18 14.75V13.25C17.0335 13.25 16.25 14.0335 16.25 15H17.75ZM18 14.75C18.1381 14.75 18.25 14.8619 18.25 15H19.75C19.75 14.0335 18.9665 13.25 18 13.25V14.75ZM17.4697 8.46967L11.4697 14.4697L12.5303 15.5303L18.5303 9.53033L17.4697 8.46967Z"/>
    </g>
    <defs>
        <filter id="mfilter0_d_11502_602" x="-1" y="0" width="32" height="32" filterUnits="userSpaceOnUse" color-interpolation-filters="sRGB">
            <feFlood flood-opacity="0" result="BackgroundImageFix"/>
            <feColorMatrix in="SourceAlpha" type="matrix" values="0 0 0 0 0 0 0 0 0 0 0 0 0 0 0 0 0 0 127 0" result="hardAlpha"/>
            <feOffset dy="4"/>
            <feGaussianBlur stdDeviation="2"/>
            <feComposite in2="hardAlpha" operator="out"/>
            <feColorMatrix type="matrix" values="0 0 0 0 0 0 0 0 0 0 0 0 0 0 0 0 0 0 0.25 0"/>
            <feBlend mode="normal" in2="BackgroundImageFix" result="effect1_dropShadow_11502_602"/>
            <feBlend mode="normal" in="SourceGraphic" in2="effect1_dropShadow_11502_602" result="shape"/>
        </filter>
    </defs>
</symbol><symbol viewBox="0 0 24 24" id="user" xmlns="http://www.w3.org/2000/svg">
    <path d="M18.5588 19.5488C17.5654 16.8918 15.0036 15 12 15C8.99638 15 6.4346 16.8918 5.44117 19.5488M18.5588 19.5488C20.6672 17.7154 22 15.0134 22 12C22 6.47715 17.5228 2 12 2C6.47715 2 2 6.47715 2 12C2 15.0134 3.33285 17.7154 5.44117 19.5488M18.5588 19.5488C16.8031 21.0756 14.5095 22 12 22C9.49052 22 7.19694 21.0756 5.44117 19.5488M15 9C15 10.6569 13.6569 12 12 12C10.3431 12 9 10.6569 9 9C9 7.34315 10.3431 6 12 6C13.6569 6 15 7.34315 15 9Z" stroke-width="1.5" stroke-linejoin="round"/>
</symbol><symbol viewBox="0 0 24 24" id="user-star-line" xmlns="http://www.w3.org/2000/svg">
    <path d="M12 14V16C8.68629 16 6 18.6863 6 22H4C4 17.5817 7.58172 14 12 14ZM12 13C8.685 13 6 10.315 6 7C6 3.685 8.685 1 12 1C15.315 1 18 3.685 18 7C18 10.315 15.315 13 12 13ZM12 11C14.21 11 16 9.21 16 7C16 4.79 14.21 3 12 3C9.79 3 8 4.79 8 7C8 9.21 9.79 11 12 11ZM18 21.5L15.0611 23.0451L15.6224 19.7725L13.2447 17.4549L16.5305 16.9775L18 14L19.4695 16.9775L22.7553 17.4549L20.3776 19.7725L20.9389 23.0451L18 21.5Z"/>
</symbol><symbol id="website" enable-background="new 0 0 497 497" viewBox="0 0 497 497" xmlns="http://www.w3.org/2000/svg">
    <g>
        <path d="m497 128.5v312c0 11.046-8.954 20-20 20h-457c-11.046 0-20-8.954-20-20v-312z"/>
        <g>
            <path d="m290.498 294.5c0-23.196-18.804-42-42-42-7.031 0-13.659 1.728-19.482 4.782-13.386 7.021-19.327 21.053-19.327 37.218 0 23.196 15.613 36.457 38.809 36.457 16.214 0 30.282-3.645 37.282-17.099 3.014-5.792 4.718-12.376 4.718-19.358z"/>
            <path d="m286.468 312.47c-6.73 14.21-21.2 24.03-37.97 24.03-23.2 0-42-18.8-42-42 0-16.77 9.82-31.24 24.03-37.97-2.59 5.45-4.03 11.54-4.03 17.97 0 23.2 18.8 42 42 42 6.43 0 12.52-1.44 17.97-4.03z"/>
        </g>
        <g>
            <path d="m429.496 294.5c0-23.196-18.804-42-42-42-7.031 0-13.659 1.728-19.482 4.782-13.386 7.021-19.327 21.053-19.327 37.218 0 23.196 15.613 36.457 38.809 36.457 16.214 0 30.282-3.645 37.282-17.099 3.014-5.792 4.718-12.376 4.718-19.358z"/>
            <path d="m425.466 312.47c-6.73 14.21-21.2 24.03-37.97 24.03-23.2 0-42-18.8-42-42 0-16.77 9.82-31.24 24.03-37.97-2.59 5.45-4.03 11.54-4.03 17.97 0 23.2 18.8 42 42 42 6.43 0 12.52-1.44 17.97-4.03z"/>
        </g>
        <path d="m497 148.5v-20l-276.011-12.798-220.989 12.798v20 292c0 11.046 8.954 20 20 20h15c-8.28 0-15-6.72-15-15v-291c0-3.314 2.686-6 6-6z"/>
        <g>
            <path d="m497 56.5v72.5h-497v-72.5c0-11.046 8.954-20 20-20h457c11.046 0 20 8.954 20 20z"/>
            <g>
                <path d="m227.758 108.5c-8.255 0-14.947-6.716-14.947-15s6.692-15 14.947-15h208.315c8.255 0 14.947 6.716 14.947 15s-6.692 15-14.947 15z"/>
                <ellipse cx="160.869" cy="93.5" rx="14.947" ry="15"/>
                <path d="m171.361 104.184 12.874-12.869-13.139 1.179z"/>
                <path d="m150.592 82.608 12.562-12.516-2.693 10.408z"/>
                <ellipse cx="98.034" cy="93.5" rx="14.947" ry="15"/>
                <path d="m108.553 104.157 12.382-12.499-12.674.836z"/>
                <path d="m87.757 82.608 12.371-12.459-2.502 10.351z"/>
                <ellipse cx="32.947" cy="93.5" rx="14.947" ry="15"/>
                <path d="m43.769 103.846 12.721-13.186-13.139 1.381z"/>
                <path d="m22.67 82.608 11.622-12.038-1.753 9.93z"/>
            </g>
            <ellipse cx="173.849" cy="80.5" rx="14.947" ry="15"/>
            <path d="m217.514 82.577 12.971-12.991-3.025 14.276z"/>
            <path d="m446.83 103.915 13.149-13.179-10.185 3.381z"/>
            <ellipse cx="110.946" cy="80.5" rx="14.947" ry="15"/>
            <ellipse cx="45.495" cy="80.5" rx="14.947" ry="15"/>
            <path d="m240.737 95.5c-8.255 0-14.947-6.716-14.947-15s6.692-15 14.947-15h208.315c8.255 0 14.947 6.716 14.947 15s-6.692 15-14.947 15z"/>
        </g>
        <path d="m135.893 215 226.628 2c5.523 0 10-4.477 10-10l3.479-7v-30c0-5.523-4.477-10-10-10h-224l-6.107 5c-5.523 0-10 4.477-10 10v30c0 5.523 4.477 10 10 10z"/>
        <path d="m376 200v10c0 5.523-4.477 10-10 10h-234c-5.523 0-10-4.477-10-10v-40c0-5.523 4.477-10 10-10h10v33c0 3.866 3.134 7 7 7z"/>
        <g>
            <path d="m151.5 294.5c0-23.196-18.804-42-42-42-7.031 0-13.659 1.728-19.482 4.782-13.386 7.021-19.327 21.053-19.327 37.218 0 23.196 15.613 36.457 38.809 36.457 16.214 0 30.282-3.645 37.282-17.099 3.014-5.792 4.718-12.376 4.718-19.358z"/>
            <path d="m147.47 312.47c-6.73 14.21-21.2 24.03-37.97 24.03-23.2 0-42-18.8-42-42 0-16.77 9.82-31.24 24.03-37.97-2.59 5.45-4.03 11.54-4.03 17.97 0 23.2 18.8 42 42 42 6.43 0 12.52-1.44 17.97-4.03z"/>
        </g>
        <g>
            <g>
                <path d="m149.5 374h-70c-4.142 0-7.5-3.358-7.5-7.5s3.358-7.5 7.5-7.5h70c4.142 0 7.5 3.358 7.5 7.5s-3.358 7.5-7.5 7.5z"/>
            </g>
            <g>
                <path d="m149.5 404h-80c-4.142 0-7.5-3.358-7.5-7.5s3.358-7.5 7.5-7.5h80c4.142 0 7.5 3.358 7.5 7.5s-3.358 7.5-7.5 7.5z"/>
            </g>
            <g>
                <path d="m149.5 434h-80c-4.142 0-7.5-3.358-7.5-7.5s3.358-7.5 7.5-7.5h80c4.142 0 7.5 3.358 7.5 7.5s-3.358 7.5-7.5 7.5z"/>
            </g>
        </g>
        <g>
            <g>
                <path d="m288.5 374h-70c-4.142 0-7.5-3.358-7.5-7.5s3.358-7.5 7.5-7.5h70c4.143 0 7.5 3.358 7.5 7.5s-3.357 7.5-7.5 7.5z"/>
            </g>
            <g>
                <path d="m288.5 404h-80c-4.142 0-7.5-3.358-7.5-7.5s3.358-7.5 7.5-7.5h80c4.143 0 7.5 3.358 7.5 7.5s-3.357 7.5-7.5 7.5z"/>
            </g>
            <g>
                <path d="m288.5 434h-80c-4.142 0-7.5-3.358-7.5-7.5s3.358-7.5 7.5-7.5h80c4.143 0 7.5 3.358 7.5 7.5s-3.357 7.5-7.5 7.5z"/>
            </g>
        </g>
        <g>
            <g>
                <path d="m427.5 374h-70c-4.143 0-7.5-3.358-7.5-7.5s3.357-7.5 7.5-7.5h70c4.143 0 7.5 3.358 7.5 7.5s-3.357 7.5-7.5 7.5z"/>
            </g>
            <g>
                <path d="m427.5 404h-80c-4.143 0-7.5-3.358-7.5-7.5s3.357-7.5 7.5-7.5h80c4.143 0 7.5 3.358 7.5 7.5s-3.357 7.5-7.5 7.5z"/>
            </g>
            <g>
                <path d="m427.5 434h-80c-4.143 0-7.5-3.358-7.5-7.5s3.357-7.5 7.5-7.5h80c4.143 0 7.5 3.358 7.5 7.5s-3.357 7.5-7.5 7.5z"/>
            </g>
        </g>
    </g>
</symbol></svg>