<?xml version="1.0" encoding="utf-8"?><svg viewBox="0 0 512 512" xmlns="http://www.w3.org/2000/svg" xmlns:xlink="http://www.w3.org/1999/xlink"><style>:root>svg{display:none}:root>svg:target{display:block}</style><svg fill="none" viewBox="0 0 50 28" id="Cart" xmlns="http://www.w3.org/2000/svg">
    <g clip-path="url(#ca)">
        <circle cx="40" cy="14" r="10" fill="#141718"/>
        <path d="M36.928 18v-1.33l3.107-2.876c.264-.256.485-.486.664-.69a2.62 2.62 0 0 0 .414-.601c.093-.199.14-.414.14-.644 0-.255-.058-.476-.174-.66a1.147 1.147 0 0 0-.478-.43 1.495 1.495 0 0 0-.686-.154c-.267 0-.5.054-.699.162a1.116 1.116 0 0 0-.46.465 1.506 1.506 0 0 0-.162.72h-1.751c0-.571.13-1.067.388-1.488a2.59 2.59 0 0 1 1.086-.975c.466-.23 1.003-.346 1.611-.346.625 0 1.17.111 1.632.333a2.59 2.59 0 0 1 1.087.912c.258.389.388.835.388 1.338 0 .33-.066.655-.196.976-.128.32-.357.677-.686 1.07-.33.389-.794.856-1.394 1.401l-1.274 1.249v.06h3.665V18h-6.222Z" fill="#FFAB00"/>
    </g>
    <path d="M10 8v1a3 3 0 1 0 6 0V8" stroke="#141718" stroke-width="1.5" stroke-linecap="round" stroke-linejoin="round"/>
    <path d="M16.612 5H9.389a4 4 0 0 0-3.946 3.342l-1.667 10A4 4 0 0 0 7.722 23h10.556a4 4 0 0 0 3.946-4.658l-1.667-10A4 4 0 0 0 16.612 5Z" stroke="#141718" stroke-width="1.5" stroke-linejoin="round"/>
    <defs>
        <clipPath id="ca">
            <path fill="#fff" transform="translate(30 4)" d="M0 0h20v20H0z"/>
        </clipPath>
    </defs>
</svg><svg fill="none" viewBox="0 0 20 20" id="Frame" xmlns="http://www.w3.org/2000/svg">
    <g clip-path="url(#ea)">
        <circle cx="10" cy="10" r="10" fill="#141718"/>
        <path d="M6.928 14v-1.33l3.107-2.876c.264-.256.485-.486.664-.69a2.62 2.62 0 0 0 .414-.601 1.49 1.49 0 0 0 .14-.644c0-.255-.058-.475-.174-.66a1.147 1.147 0 0 0-.478-.43 1.496 1.496 0 0 0-.686-.154c-.267 0-.5.054-.699.162a1.116 1.116 0 0 0-.46.464 1.506 1.506 0 0 0-.162.72H6.843c0-.57.13-1.066.388-1.487A2.59 2.59 0 0 1 8.317 5.5c.466-.23 1.003-.346 1.611-.346.625 0 1.17.111 1.632.333a2.59 2.59 0 0 1 1.087.912c.258.389.388.835.388 1.338 0 .33-.066.655-.196.976-.128.32-.357.677-.687 1.07-.329.389-.793.856-1.393 1.401l-1.274 1.249v.06h3.665V14H6.928Z" fill="#FFAB00"/>
    </g>
    <defs>
        <clipPath id="ea">
            <path fill="#fff" d="M0 0h20v20H0z"/>
        </clipPath>
    </defs>
</svg><svg fill="none" viewBox="0 0 69 14" id="ShopNow" xmlns="http://www.w3.org/2000/svg">
    <path d="M6.672 3.493a1.452 1.452 0 0 0-.656-1.094c-.385-.262-.869-.393-1.452-.393-.418 0-.779.067-1.084.2-.305.129-.542.307-.71.536a1.267 1.267 0 0 0-.25.77c0 .243.057.452.17.627.116.176.266.323.452.443.189.116.391.213.607.293.215.076.422.14.621.189l.994.258c.325.08.658.188 1 .324.341.135.658.314.95.537.29.222.526.497.705.825.182.328.274.72.274 1.178 0 .577-.15 1.089-.448 1.536-.295.448-.724.8-1.287 1.06-.56.258-1.238.387-2.034.387-.762 0-1.422-.12-1.979-.363-.556-.242-.992-.585-1.307-1.029-.315-.447-.489-.978-.522-1.59h1.541c.03.367.15.674.358.919.212.242.482.422.81.542.332.116.695.174 1.09.174.433 0 .82-.068 1.158-.204.341-.14.61-.332.805-.577.196-.248.293-.538.293-.87 0-.301-.086-.548-.258-.74a1.91 1.91 0 0 0-.691-.478 6.755 6.755 0 0 0-.98-.333L3.64 6.292c-.815-.222-1.461-.549-1.939-.98-.474-.43-.71-1-.71-1.71 0-.586.158-1.098.477-1.536a3.134 3.134 0 0 1 1.292-1.02C3.303.803 3.916.68 4.6.68c.69 0 1.297.121 1.824.363.53.242.948.575 1.253 1 .305.42.464.904.477 1.45H6.672Zm4.824 2.973V11h-1.487V.818h1.467v3.789h.094c.18-.411.453-.738.82-.98.368-.242.849-.363 1.442-.363.524 0 .981.108 1.372.323.395.216.7.537.915.965.219.424.328.954.328 1.59V11h-1.486V6.322c0-.56-.144-.995-.433-1.303-.288-.311-.69-.467-1.203-.467-.351 0-.666.074-.944.224-.276.149-.493.367-.652.656-.156.285-.233.63-.233 1.034Zm10.152 4.688c-.716 0-1.341-.164-1.875-.492a3.318 3.318 0 0 1-1.243-1.377c-.295-.59-.442-1.28-.442-2.068 0-.793.147-1.485.442-2.079a3.311 3.311 0 0 1 1.243-1.382c.534-.328 1.159-.492 1.875-.492.715 0 1.34.164 1.874.492.534.329.948.79 1.243 1.382.295.594.442 1.286.442 2.079 0 .788-.147 1.478-.442 2.068a3.318 3.318 0 0 1-1.243 1.377c-.534.328-1.159.492-1.874.492Zm.005-1.248c.463 0 .848-.122 1.153-.368.305-.245.53-.571.676-.98.15-.407.224-.856.224-1.346 0-.488-.075-.935-.224-1.343a2.187 2.187 0 0 0-.676-.989c-.305-.249-.69-.373-1.154-.373-.467 0-.855.124-1.163.373a2.22 2.22 0 0 0-.68.99 3.958 3.958 0 0 0-.22 1.342c0 .49.073.94.22 1.347.148.408.375.734.68.98.308.245.696.367 1.163.367Zm5.213 3.958v-10.5h1.452v1.238h.124c.087-.16.21-.343.373-.552.163-.21.388-.391.676-.547.289-.16.67-.239 1.144-.239.616 0 1.167.156 1.65.468.484.311.864.76 1.139 1.347.278.586.418 1.292.418 2.118 0 .825-.138 1.533-.413 2.123-.275.586-.653 1.039-1.134 1.357-.48.315-1.029.472-1.645.472-.464 0-.844-.078-1.139-.233a2.155 2.155 0 0 1-.686-.547 4.141 4.141 0 0 1-.383-.557h-.089v4.052h-1.487Zm1.457-6.682c0 .537.078 1.007.234 1.412.156.404.381.72.676.95.295.225.656.337 1.084.337.444 0 .815-.117 1.113-.353a2.19 2.19 0 0 0 .676-.97c.156-.407.234-.866.234-1.376 0-.504-.076-.956-.229-1.357a2.077 2.077 0 0 0-.676-.95c-.298-.232-.67-.348-1.118-.348-.431 0-.796.111-1.094.333-.295.222-.519.532-.671.93-.153.397-.229.862-.229 1.392ZM47.55.818V11h-1.412l-5.176-7.467h-.094V11H39.33V.818h1.422l5.18 7.477h.095V.818h1.522Zm5.338 10.336c-.716 0-1.34-.164-1.874-.492a3.319 3.319 0 0 1-1.243-1.377c-.295-.59-.443-1.28-.443-2.068 0-.793.148-1.485.443-2.079a3.313 3.313 0 0 1 1.242-1.382c.534-.328 1.159-.492 1.875-.492s1.34.164 1.874.492c.534.329.948.79 1.243 1.382.295.594.442 1.286.442 2.079 0 .788-.147 1.478-.442 2.068a3.319 3.319 0 0 1-1.243 1.377c-.534.328-1.158.492-1.874.492Zm.005-1.248c.464 0 .848-.122 1.153-.368.305-.245.53-.571.676-.98.15-.407.224-.856.224-1.346 0-.488-.075-.935-.224-1.343a2.187 2.187 0 0 0-.676-.989c-.305-.249-.69-.373-1.153-.373-.468 0-.855.124-1.164.373a2.221 2.221 0 0 0-.68.99 3.96 3.96 0 0 0-.22 1.342c0 .49.074.94.22 1.347.148.408.376.734.68.98.309.245.696.367 1.164.367ZM59.53 11l-2.247-7.636h1.536l1.496 5.608h.075l1.501-5.608h1.537l1.491 5.583h.075l1.486-5.583h1.536L65.774 11h-1.516l-1.551-5.513h-.115L61.042 11H59.53Z" fill="#FFAB00"/>
</svg><svg fill="none" viewBox="0 0 91 24" id="ShopNow+arrow" xmlns="http://www.w3.org/2000/svg">
    <path d="M6.672 9.493a1.452 1.452 0 0 0-.656-1.094c-.385-.262-.869-.393-1.452-.393-.418 0-.779.067-1.084.2-.305.129-.542.307-.71.536a1.267 1.267 0 0 0-.25.77c0 .243.057.452.17.627.116.176.266.323.452.443.189.116.391.213.607.293.215.076.422.14.621.189l.994.258c.325.08.658.188 1 .324.341.135.658.314.95.536.29.223.526.498.705.826.182.328.274.72.274 1.178 0 .577-.15 1.089-.448 1.536-.295.448-.724.8-1.287 1.06-.56.258-1.238.387-2.034.387-.762 0-1.422-.12-1.979-.363-.556-.242-.992-.585-1.307-1.029-.315-.447-.489-.978-.522-1.59h1.541c.03.367.15.674.358.919.212.242.482.422.81.542.332.116.695.174 1.09.174.433 0 .82-.068 1.158-.204.341-.14.61-.332.805-.577.196-.248.293-.538.293-.87 0-.301-.086-.548-.258-.74a1.911 1.911 0 0 0-.691-.478 6.758 6.758 0 0 0-.98-.333l-1.203-.328c-.815-.222-1.461-.549-1.939-.98-.474-.43-.71-1-.71-1.71 0-.586.158-1.098.477-1.536a3.134 3.134 0 0 1 1.292-1.02c.544-.244 1.157-.367 1.84-.367.69 0 1.297.12 1.824.363.53.242.948.575 1.253 1 .305.42.464.904.477 1.45H6.672Zm4.824 2.973V17h-1.487V6.818h1.467v3.789h.094c.18-.412.453-.738.82-.98.368-.242.849-.363 1.442-.363.524 0 .981.108 1.372.323.395.216.7.537.915.965.219.424.328.954.328 1.59V17h-1.486v-4.678c0-.56-.144-.995-.433-1.303-.288-.311-.69-.467-1.203-.467-.351 0-.666.074-.944.224-.276.149-.493.367-.652.656-.156.285-.233.63-.233 1.034Zm10.152 4.688c-.716 0-1.341-.164-1.875-.492a3.317 3.317 0 0 1-1.243-1.377c-.295-.59-.442-1.28-.442-2.068 0-.793.147-1.485.442-2.079a3.311 3.311 0 0 1 1.243-1.382c.534-.328 1.159-.492 1.875-.492.715 0 1.34.164 1.874.492.534.329.948.79 1.243 1.383.295.593.442 1.286.442 2.078 0 .788-.147 1.478-.442 2.068a3.317 3.317 0 0 1-1.243 1.377c-.534.328-1.159.492-1.874.492Zm.005-1.248c.463 0 .848-.122 1.153-.368.305-.245.53-.571.676-.98.15-.407.224-.856.224-1.346 0-.488-.075-.935-.224-1.343a2.187 2.187 0 0 0-.676-.989c-.305-.249-.69-.373-1.154-.373-.467 0-.855.124-1.163.373a2.22 2.22 0 0 0-.68.99 3.958 3.958 0 0 0-.22 1.342c0 .49.073.94.22 1.347.148.408.375.734.68.98.308.245.696.367 1.163.367Zm5.213 3.958v-10.5h1.452v1.238h.124c.087-.16.21-.344.373-.552a2.11 2.11 0 0 1 .676-.547c.289-.16.67-.239 1.144-.239.616 0 1.167.156 1.65.468.484.311.864.76 1.139 1.347.278.586.418 1.292.418 2.118 0 .825-.138 1.533-.413 2.123-.275.586-.653 1.039-1.134 1.357-.48.315-1.029.472-1.645.472-.464 0-.844-.078-1.139-.233a2.155 2.155 0 0 1-.686-.547 4.142 4.142 0 0 1-.383-.557h-.089v4.052h-1.487Zm1.457-6.682c0 .537.078 1.007.234 1.412.156.404.381.72.676.95.295.225.656.337 1.084.337.444 0 .815-.117 1.113-.353a2.19 2.19 0 0 0 .676-.97c.156-.407.234-.866.234-1.376 0-.504-.076-.956-.229-1.357a2.077 2.077 0 0 0-.676-.95c-.298-.232-.67-.348-1.118-.348-.431 0-.796.111-1.094.333-.295.222-.519.532-.671.93-.153.398-.229.862-.229 1.392ZM47.55 6.818V17h-1.412l-5.176-7.467h-.094V17H39.33V6.818h1.422l5.18 7.478h.095V6.818h1.522Zm5.338 10.336c-.716 0-1.34-.164-1.874-.492a3.319 3.319 0 0 1-1.243-1.377c-.295-.59-.443-1.28-.443-2.068 0-.793.148-1.485.443-2.079a3.312 3.312 0 0 1 1.242-1.382c.534-.328 1.159-.492 1.875-.492s1.34.164 1.874.492c.534.329.948.79 1.243 1.383.295.593.442 1.286.442 2.078 0 .788-.147 1.478-.442 2.068a3.319 3.319 0 0 1-1.243 1.377c-.534.328-1.158.492-1.874.492Zm.005-1.248c.464 0 .848-.122 1.153-.368.305-.245.53-.571.676-.98.15-.407.224-.856.224-1.346 0-.488-.075-.935-.224-1.343a2.187 2.187 0 0 0-.676-.989c-.305-.249-.69-.373-1.153-.373-.468 0-.855.124-1.164.373a2.221 2.221 0 0 0-.68.99 3.96 3.96 0 0 0-.22 1.342c0 .49.074.94.22 1.347.148.408.376.734.68.98.309.245.696.367 1.164.367ZM59.53 17l-2.247-7.636h1.536l1.496 5.608h.075l1.501-5.608h1.537l1.491 5.583h.075l1.486-5.583h1.536L65.774 17h-1.516l-1.551-5.514h-.115L61.042 17H59.53Z" fill="#FFAB00"/>
    <path d="M76.75 12h10.5M82.75 16.5l4.5-4.5M82.75 7.5l4.5 4.5" stroke="#FFAB00" stroke-width="1.125" stroke-linecap="round" stroke-linejoin="round"/>
</svg><svg fill="none" viewBox="0 0 69 14" id="ShopNow_2" xmlns="http://www.w3.org/2000/svg">
    <path d="M6.672 3.493a1.452 1.452 0 0 0-.656-1.094c-.385-.262-.869-.393-1.452-.393-.418 0-.779.067-1.084.2-.305.129-.542.307-.71.536a1.267 1.267 0 0 0-.25.77c0 .243.057.452.17.627.116.176.266.323.452.443.189.116.391.213.607.293.215.076.422.14.621.189l.994.258c.325.08.658.188 1 .324.341.135.658.314.95.537.29.222.526.497.705.825.182.328.274.72.274 1.178 0 .577-.15 1.089-.448 1.536-.295.448-.724.8-1.287 1.06-.56.258-1.238.387-2.034.387-.762 0-1.422-.12-1.979-.363-.556-.242-.992-.585-1.307-1.029-.315-.447-.489-.978-.522-1.59h1.541c.03.367.15.674.358.919.212.242.482.422.81.542.332.116.695.174 1.09.174.433 0 .82-.068 1.158-.204.341-.14.61-.332.805-.577.196-.248.293-.538.293-.87 0-.301-.086-.548-.258-.74a1.91 1.91 0 0 0-.691-.478 6.755 6.755 0 0 0-.98-.333L3.64 6.292c-.815-.222-1.461-.549-1.939-.98-.474-.43-.71-1-.71-1.71 0-.586.158-1.098.477-1.536a3.134 3.134 0 0 1 1.292-1.02C3.303.803 3.916.68 4.6.68c.69 0 1.297.121 1.824.363.53.242.948.575 1.253 1 .305.42.464.904.477 1.45H6.672Zm4.824 2.973V11h-1.487V.818h1.467v3.789h.094c.18-.411.453-.738.82-.98.368-.242.849-.363 1.442-.363.524 0 .981.108 1.372.323.395.216.7.537.915.965.219.424.328.954.328 1.59V11h-1.486V6.322c0-.56-.144-.995-.433-1.303-.288-.311-.69-.467-1.203-.467-.351 0-.666.074-.944.224-.276.149-.493.367-.652.656-.156.285-.233.63-.233 1.034Zm10.152 4.688c-.716 0-1.341-.164-1.875-.492a3.318 3.318 0 0 1-1.243-1.377c-.295-.59-.442-1.28-.442-2.068 0-.793.147-1.485.442-2.079a3.311 3.311 0 0 1 1.243-1.382c.534-.328 1.159-.492 1.875-.492.715 0 1.34.164 1.874.492.534.329.948.79 1.243 1.382.295.594.442 1.286.442 2.079 0 .788-.147 1.478-.442 2.068a3.318 3.318 0 0 1-1.243 1.377c-.534.328-1.159.492-1.874.492Zm.005-1.248c.463 0 .848-.122 1.153-.368.305-.245.53-.571.676-.98.15-.407.224-.856.224-1.346 0-.488-.075-.935-.224-1.343a2.187 2.187 0 0 0-.676-.989c-.305-.249-.69-.373-1.154-.373-.467 0-.855.124-1.163.373a2.22 2.22 0 0 0-.68.99 3.958 3.958 0 0 0-.22 1.342c0 .49.073.94.22 1.347.148.408.375.734.68.98.308.245.696.367 1.163.367Zm5.213 3.958v-10.5h1.452v1.238h.124c.087-.16.21-.343.373-.552.163-.21.388-.391.676-.547.289-.16.67-.239 1.144-.239.616 0 1.167.156 1.65.468.484.311.864.76 1.139 1.347.278.586.418 1.292.418 2.118 0 .825-.138 1.533-.413 2.123-.275.586-.653 1.039-1.134 1.357-.48.315-1.029.472-1.645.472-.464 0-.844-.078-1.139-.233a2.155 2.155 0 0 1-.686-.547 4.141 4.141 0 0 1-.383-.557h-.089v4.052h-1.487Zm1.457-6.682c0 .537.078 1.007.234 1.412.156.404.381.72.676.95.295.225.656.337 1.084.337.444 0 .815-.117 1.113-.353a2.19 2.19 0 0 0 .676-.97c.156-.407.234-.866.234-1.376 0-.504-.076-.956-.229-1.357a2.077 2.077 0 0 0-.676-.95c-.298-.232-.67-.348-1.118-.348-.431 0-.796.111-1.094.333-.295.222-.519.532-.671.93-.153.397-.229.862-.229 1.392ZM47.55.818V11h-1.412l-5.176-7.467h-.094V11H39.33V.818h1.422l5.18 7.477h.095V.818h1.522Zm5.338 10.336c-.716 0-1.34-.164-1.874-.492a3.319 3.319 0 0 1-1.243-1.377c-.295-.59-.443-1.28-.443-2.068 0-.793.148-1.485.443-2.079a3.313 3.313 0 0 1 1.242-1.382c.534-.328 1.159-.492 1.875-.492s1.34.164 1.874.492c.534.329.948.79 1.243 1.382.295.594.442 1.286.442 2.079 0 .788-.147 1.478-.442 2.068a3.319 3.319 0 0 1-1.243 1.377c-.534.328-1.158.492-1.874.492Zm.005-1.248c.464 0 .848-.122 1.153-.368.305-.245.53-.571.676-.98.15-.407.224-.856.224-1.346 0-.488-.075-.935-.224-1.343a2.187 2.187 0 0 0-.676-.989c-.305-.249-.69-.373-1.153-.373-.468 0-.855.124-1.164.373a2.221 2.221 0 0 0-.68.99 3.96 3.96 0 0 0-.22 1.342c0 .49.074.94.22 1.347.148.408.376.734.68.98.309.245.696.367 1.164.367ZM59.53 11l-2.247-7.636h1.536l1.496 5.608h.075l1.501-5.608h1.537l1.491 5.583h.075l1.486-5.583h1.536L65.774 11h-1.516l-1.551-5.513h-.115L61.042 11H59.53Z" fill="#FFAB00"/>
</svg><svg fill="none" viewBox="0 0 18 18" id="arrow-right" xmlns="http://www.w3.org/2000/svg">
    <path d="M3.75 9h10.5M9.75 13.5l4.5-4.5M9.75 4.5l4.5 4.5" stroke="#FFAB00" stroke-width="1.125" stroke-linecap="round" stroke-linejoin="round"/>
</svg><svg fill="none" viewBox="0 0 24 24" id="bag" xmlns="http://www.w3.org/2000/svg">
    <path d="M9 6v1a3 3 0 1 0 6 0V6" stroke="#141718" stroke-width="1.5" stroke-linecap="round" stroke-linejoin="round"/>
    <path d="M15.612 3H8.389a4 4 0 0 0-3.946 3.342l-1.667 10A4 4 0 0 0 6.722 21h10.556a4 4 0 0 0 3.946-4.658l-1.667-10A4 4 0 0 0 15.612 3Z" stroke="#141718" stroke-width="1.5" stroke-linejoin="round"/>
</svg><svg fill="none" viewBox="0 0 20 20" id="close" xmlns="http://www.w3.org/2000/svg">
    <path fill-rule="evenodd" clip-rule="evenodd" d="M15.442 5.442a.625.625 0 1 0-.884-.884L10 9.116 5.442 4.558a.625.625 0 1 0-.884.884L9.116 10l-4.558 4.558a.625.625 0 1 0 .884.884L10 10.884l4.558 4.558a.625.625 0 1 0 .884-.884L10.884 10l4.558-4.558Z" fill="#343839"/>
</svg><svg fill="none" viewBox="0 0 24 25" id="heart" xmlns="http://www.w3.org/2000/svg">
    <path fill-rule="evenodd" clip-rule="evenodd" d="M12.692 7.584a1 1 0 0 1-1.384 0l-.693-.665A4.5 4.5 0 0 0 3 10.166c0 2.383 1.29 4.35 3.152 5.967 1.863 1.618 4.091 2.691 5.423 3.239.278.114.572.114.85 0 1.332-.548 3.56-1.62 5.423-3.239C19.71 14.517 21 12.55 21 10.167a4.5 4.5 0 0 0-7.615-3.248l-.693.665ZM12 5.476a6.5 6.5 0 0 0-11 4.69c0 6.369 6.97 9.886 9.814 11.055a3.096 3.096 0 0 0 2.372 0C16.03 20.051 23 16.535 23 10.167a6.5 6.5 0 0 0-11-4.69Z" fill="#141718"/>
</svg><svg fill="none" viewBox="0 0 24 24" id="id-card-line" xmlns="http://www.w3.org/2000/svg">
    <path d="M3 6h18v12H3V6ZM2 4a1 1 0 0 0-1 1v14a1 1 0 0 0 1 1h20a1 1 0 0 0 1-1V5a1 1 0 0 0-1-1H2Zm11 4h6v2h-6V8Zm5 4h-5v2h5v-2Zm-7.5-2a2.5 2.5 0 1 1-5 0 2.5 2.5 0 0 1 5 0ZM8 13.5A3.5 3.5 0 0 0 4.5 17h7A3.5 3.5 0 0 0 8 13.5Z" fill="#000"/>
</svg><svg version="1.0" viewBox="0 0 144 144" id="r" xmlns="http://www.w3.org/2000/svg">
    <path d="M40.5 27.4c-5.7 1.8-8.3 3.6-10.8 7.6-2.2 3.4-2.2 4.3-2.5 43.2l-.3 39.8H42l.1-21.8c.2-52.7.1-51.6 5.6-54.1 1.6-.7 14.2-1.1 35.8-1.1H117V26l-36.2.1c-26.3 0-37.4.4-40.3 1.3z"/>
    <path d="M67.7 61.6c-.4.4-.7 3.3-.7 6.5 0 7.8 2.6 12.3 18.9 32.9l13.5 17h8.8c4.8 0 8.8-.4 8.8-.9s-6.5-9-14.4-18.9c-7.9-9.9-15-19.1-15.7-20.3-.7-1.3-1.5-5.6-1.8-9.4l-.6-7-8-.3c-4.5-.1-8.4 0-8.8.4z"/>
</svg><svg fill="none" viewBox="0 0 24 24" id="search" xmlns="http://www.w3.org/2000/svg">
    <path d="M18.5 18.5 22 22m-1-10.5a9.5 9.5 0 1 0-19 0 9.5 9.5 0 0 0 19 0Z" stroke="#141718" stroke-width="1.5" stroke-linecap="round" stroke-linejoin="round"/>
</svg><svg fill="none" viewBox="0 0 30 30" id="ticket-percent" xmlns="http://www.w3.org/2000/svg">
    <g filter="url(#ma)">
        <path d="m24.018 14.836-.245.708.245-.708Zm0-5.672.245.71-.245-.71ZM5.982 14.836l.245.708-.245-.708Zm0-5.672-.245.71.245-.71Zm12.548.366a.75.75 0 0 0-1.06-1.06l1.06 1.06Zm-7.06 4.94a.75.75 0 1 0 1.06 1.06l-1.06-1.06ZM9 20.25A3.25 3.25 0 0 1 5.75 17h-1.5A4.75 4.75 0 0 0 9 21.75v-1.5ZM24.25 17A3.25 3.25 0 0 1 21 20.25v1.5A4.75 4.75 0 0 0 25.75 17h-1.5ZM21 3.75A3.25 3.25 0 0 1 24.25 7h1.5A4.75 4.75 0 0 0 21 2.25v1.5ZM9 2.25A4.75 4.75 0 0 0 4.25 7h1.5A3.25 3.25 0 0 1 9 3.75v-1.5Zm15.264 11.877A2.251 2.251 0 0 1 22.75 12h-1.5a3.751 3.751 0 0 0 2.523 3.544l.49-1.417ZM22.75 12c0-.984.631-1.822 1.514-2.127l-.491-1.417A3.751 3.751 0 0 0 21.25 12h1.5Zm-15.5 0c0 .984-.632 1.822-1.513 2.127l.49 1.417A3.751 3.751 0 0 0 8.75 12h-1.5ZM5.737 9.873A2.251 2.251 0 0 1 7.25 12h1.5a3.751 3.751 0 0 0-2.523-3.544l-.49 1.417ZM25.75 8V7h-1.5v1h1.5Zm-1.5 8v1h1.5v-1h-1.5Zm-20 0v1h1.5v-1h-1.5Zm1.5-8V7h-1.5v1h1.5ZM21 20.25H9v1.5h12v-1.5Zm0-18H9v1.5h12v-1.5ZM5.737 14.127c-.68.235-1.487.87-1.487 1.873h1.5c0-.056.02-.13.102-.219a.92.92 0 0 1 .375-.237l-.49-1.417Zm18.526-4.254c.68-.235 1.487-.87 1.487-1.873h-1.5c0 .056-.02.13-.102.219a.921.921 0 0 1-.375.237l.49 1.417ZM6.227 8.456a.921.921 0 0 1-.375-.237C5.77 8.129 5.75 8.056 5.75 8h-1.5c0 1.002.808 1.638 1.487 1.873l.49-1.417Zm17.546 7.088a.92.92 0 0 1 .375.237c.081.09.102.163.102.219h1.5c0-1.002-.808-1.638-1.486-1.873l-.491 1.417ZM12.25 9a.25.25 0 0 1-.25.25v1.5A1.75 1.75 0 0 0 13.75 9h-1.5Zm-.25.25a.25.25 0 0 1-.25-.25h-1.5c0 .966.784 1.75 1.75 1.75v-1.5ZM11.75 9a.25.25 0 0 1 .25-.25v-1.5A1.75 1.75 0 0 0 10.25 9h1.5Zm.25-.25a.25.25 0 0 1 .25.25h1.5A1.75 1.75 0 0 0 12 7.25v1.5ZM18.25 15a.25.25 0 0 1-.25.25v1.5A1.75 1.75 0 0 0 19.75 15h-1.5Zm-.25.25a.25.25 0 0 1-.25-.25h-1.5c0 .966.784 1.75 1.75 1.75v-1.5Zm-.25-.25a.25.25 0 0 1 .25-.25v-1.5A1.75 1.75 0 0 0 16.25 15h1.5Zm.25-.25a.25.25 0 0 1 .25.25h1.5A1.75 1.75 0 0 0 18 13.25v1.5Zm-.53-6.28-6 6 1.06 1.06 6-6-1.06-1.06Z" fill="#FEFEFE"/>
    </g>
    <defs>
        <filter id="ma" x="-1" y="0" width="32" height="32" filterUnits="userSpaceOnUse" color-interpolation-filters="sRGB">
            <feFlood flood-opacity="0" result="BackgroundImageFix"/>
            <feColorMatrix in="SourceAlpha" values="0 0 0 0 0 0 0 0 0 0 0 0 0 0 0 0 0 0 127 0" result="hardAlpha"/>
            <feOffset dy="4"/>
            <feGaussianBlur stdDeviation="2"/>
            <feComposite in2="hardAlpha" operator="out"/>
            <feColorMatrix values="0 0 0 0 0 0 0 0 0 0 0 0 0 0 0 0 0 0 0.25 0"/>
            <feBlend in2="BackgroundImageFix" result="effect1_dropShadow_11502_602"/>
            <feBlend in="SourceGraphic" in2="effect1_dropShadow_11502_602" result="shape"/>
        </filter>
    </defs>
</svg><svg fill="none" viewBox="0 0 24 24" id="user" xmlns="http://www.w3.org/2000/svg">
    <path d="M18.559 19.549a7.003 7.003 0 0 0-13.118 0m13.118 0A9.976 9.976 0 0 0 22 12c0-5.523-4.477-10-10-10S2 6.477 2 12a9.977 9.977 0 0 0 3.441 7.549m13.118 0A9.961 9.961 0 0 1 12 22a9.961 9.961 0 0 1-6.559-2.451M15 9a3 3 0 1 1-6 0 3 3 0 0 1 6 0Z" stroke="#141718" stroke-width="1.5" stroke-linejoin="round"/>
</svg><svg fill="none" viewBox="0 0 24 24" id="user-star-line" xmlns="http://www.w3.org/2000/svg">
    <path d="M12 14v2a6 6 0 0 0-6 6H4a8 8 0 0 1 8-8Zm0-1c-3.315 0-6-2.685-6-6s2.685-6 6-6 6 2.685 6 6-2.685 6-6 6Zm0-2c2.21 0 4-1.79 4-4s-1.79-4-4-4-4 1.79-4 4 1.79 4 4 4Zm6 10.5-2.939 1.545.561-3.273-2.377-2.317 3.286-.477L18 14l1.47 2.977 3.285.478-2.377 2.318.56 3.272L18 21.5Z" fill="#000"/>
</svg><svg viewBox="0 0 497 497" id="website" xmlns="http://www.w3.org/2000/svg">
    <path d="M497 128.5v312c0 11.046-8.954 20-20 20H20c-11.046 0-20-8.954-20-20v-312z" fill="#faf8f8"/>
    <path d="M290.498 294.5c0-23.196-18.804-42-42-42a41.823 41.823 0 0 0-19.482 4.782c-13.386 7.021-19.327 21.053-19.327 37.218 0 23.196 15.613 36.457 38.809 36.457 16.214 0 30.282-3.645 37.282-17.099a41.814 41.814 0 0 0 4.718-19.358z" fill="#dc4955"/>
    <path d="M286.468 312.47c-6.73 14.21-21.2 24.03-37.97 24.03-23.2 0-42-18.8-42-42 0-16.77 9.82-31.24 24.03-37.97-2.59 5.45-4.03 11.54-4.03 17.97 0 23.2 18.8 42 42 42 6.43 0 12.52-1.44 17.97-4.03z" fill="#d82f3c"/>
    <path d="M429.496 294.5c0-23.196-18.804-42-42-42a41.823 41.823 0 0 0-19.482 4.782c-13.386 7.021-19.327 21.053-19.327 37.218 0 23.196 15.613 36.457 38.809 36.457 16.214 0 30.282-3.645 37.282-17.099a41.814 41.814 0 0 0 4.718-19.358z" fill="#b7e546"/>
    <path d="M425.466 312.47c-6.73 14.21-21.2 24.03-37.97 24.03-23.2 0-42-18.8-42-42 0-16.77 9.82-31.24 24.03-37.97-2.59 5.45-4.03 11.54-4.03 17.97 0 23.2 18.8 42 42 42 6.43 0 12.52-1.44 17.97-4.03z" fill="#abd641"/>
    <path d="M497 148.5v-20l-276.011-12.798L0 128.5v312c0 11.046 8.954 20 20 20h15c-8.28 0-15-6.72-15-15v-291a6 6 0 0 1 6-6z" fill="#f0e9e6"/>
    <path d="M497 56.5V129H0V56.5c0-11.046 8.954-20 20-20h457c11.046 0 20 8.954 20 20z" fill="#5d748a"/>
    <g fill="#3f597d">
        <path d="M227.758 108.5c-8.255 0-14.947-6.716-14.947-15s6.692-15 14.947-15h208.315c8.255 0 14.947 6.716 14.947 15s-6.692 15-14.947 15z"/>
        <ellipse cx="160.869" cy="93.5" rx="14.947" ry="15"/>
        <path d="m171.361 104.184 12.874-12.869-13.139 1.179zM150.592 82.608l12.562-12.516-2.693 10.408z"/>
        <ellipse cx="98.034" cy="93.5" rx="14.947" ry="15"/>
        <path d="m108.553 104.157 12.382-12.499-12.674.836zM87.757 82.608l12.371-12.459L97.626 80.5z"/>
        <ellipse cx="32.947" cy="93.5" rx="14.947" ry="15"/>
        <path d="M43.769 103.846 56.49 90.66l-13.139 1.381zM22.67 82.608 34.292 70.57l-1.753 9.93z"/>
    </g>
    <ellipse cx="173.849" cy="80.5" fill="#b7e546" rx="14.947" ry="15"/>
    <path d="m217.514 82.577 12.971-12.991-3.025 14.276zM446.83 103.915l13.149-13.179-10.185 3.381z" fill="#3f597d"/>
    <ellipse cx="110.946" cy="80.5" fill="#ffbf54" rx="14.947" ry="15"/>
    <ellipse cx="45.495" cy="80.5" fill="#dc4955" rx="14.947" ry="15"/>
    <path d="M240.737 95.5c-8.255 0-14.947-6.716-14.947-15s6.692-15 14.947-15h208.315c8.255 0 14.947 6.716 14.947 15s-6.692 15-14.947 15z" fill="#faf8f8"/>
    <path d="m135.893 215 226.628 2c5.523 0 10-4.477 10-10l3.479-7v-30c0-5.523-4.477-10-10-10H142l-6.107 5c-5.523 0-10 4.477-10 10v30c0 5.523 4.477 10 10 10z" fill="#aad8de"/>
    <path d="M376 200v10c0 5.523-4.477 10-10 10H132c-5.523 0-10-4.477-10-10v-40c0-5.523 4.477-10 10-10h10v33a7 7 0 0 0 7 7z" fill="#94ccd4"/>
    <path d="M151.5 294.5c0-23.196-18.804-42-42-42a41.823 41.823 0 0 0-19.482 4.782c-13.386 7.021-19.327 21.053-19.327 37.218 0 23.196 15.613 36.457 38.809 36.457 16.214 0 30.282-3.645 37.282-17.099A41.814 41.814 0 0 0 151.5 294.5z" fill="#ffbf54"/>
    <path d="M147.47 312.47c-6.73 14.21-21.2 24.03-37.97 24.03-23.2 0-42-18.8-42-42 0-16.77 9.82-31.24 24.03-37.97-2.59 5.45-4.03 11.54-4.03 17.97 0 23.2 18.8 42 42 42 6.43 0 12.52-1.44 17.97-4.03z" fill="#ffa442"/>
    <path d="M149.5 374h-70a7.5 7.5 0 0 1 0-15h70a7.5 7.5 0 0 1 0 15zM149.5 404h-80a7.5 7.5 0 0 1 0-15h80a7.5 7.5 0 0 1 0 15zM149.5 434h-80a7.5 7.5 0 0 1 0-15h80a7.5 7.5 0 0 1 0 15zM288.5 374h-70a7.5 7.5 0 0 1 0-15h70c4.143 0 7.5 3.358 7.5 7.5s-3.357 7.5-7.5 7.5zM288.5 404h-80a7.5 7.5 0 0 1 0-15h80c4.143 0 7.5 3.358 7.5 7.5s-3.357 7.5-7.5 7.5zM288.5 434h-80a7.5 7.5 0 0 1 0-15h80c4.143 0 7.5 3.358 7.5 7.5s-3.357 7.5-7.5 7.5zM427.5 374h-70c-4.143 0-7.5-3.358-7.5-7.5s3.357-7.5 7.5-7.5h70c4.143 0 7.5 3.358 7.5 7.5s-3.357 7.5-7.5 7.5zM427.5 404h-80c-4.143 0-7.5-3.358-7.5-7.5s3.357-7.5 7.5-7.5h80c4.143 0 7.5 3.358 7.5 7.5s-3.357 7.5-7.5 7.5zM427.5 434h-80c-4.143 0-7.5-3.358-7.5-7.5s3.357-7.5 7.5-7.5h80c4.143 0 7.5 3.358 7.5 7.5s-3.357 7.5-7.5 7.5z" fill="#f0e9e6"/>
</svg></svg>