<svg width="69" height="14" viewBox="0 0 69 14" fill="none" xmlns="http://www.w3.org/2000/svg">
<path d="M6.67188 3.4929C6.61884 3.02225 6.40009 2.65767 6.01562 2.39915C5.63116 2.13731 5.14725 2.00639 4.56392 2.00639C4.14631 2.00639 3.78504 2.07268 3.48011 2.20526C3.17519 2.33452 2.93821 2.51349 2.76918 2.74219C2.60346 2.96757 2.5206 3.22443 2.5206 3.51278C2.5206 3.75473 2.57694 3.96354 2.68963 4.1392C2.80563 4.31487 2.95644 4.46236 3.14205 4.58168C3.33097 4.69768 3.53314 4.79545 3.74858 4.875C3.96402 4.95123 4.17116 5.0142 4.37003 5.06392L5.36435 5.32244C5.68916 5.40199 6.02225 5.50971 6.36364 5.6456C6.70502 5.78149 7.02154 5.96046 7.31321 6.18253C7.60488 6.40459 7.8402 6.67969 8.01918 7.00781C8.20147 7.33594 8.29261 7.72869 8.29261 8.18608C8.29261 8.76278 8.14347 9.27486 7.84517 9.7223C7.55019 10.1697 7.12098 10.5227 6.55753 10.7812C5.9974 11.0398 5.3196 11.169 4.52415 11.169C3.76184 11.169 3.10227 11.0481 2.54545 10.8061C1.98864 10.5642 1.55279 10.2211 1.23793 9.77699C0.923059 9.32955 0.749053 8.79924 0.715909 8.18608H2.2571C2.28693 8.55398 2.40625 8.86056 2.61506 9.10582C2.82718 9.34777 3.0973 9.52841 3.42543 9.64773C3.75687 9.76373 4.11979 9.82173 4.5142 9.82173C4.94839 9.82173 5.33452 9.75379 5.67259 9.6179C6.01397 9.47869 6.28243 9.28646 6.47798 9.04119C6.67353 8.79261 6.77131 8.5026 6.77131 8.17116C6.77131 7.86955 6.68513 7.62263 6.51278 7.4304C6.34375 7.23816 6.1134 7.07907 5.82173 6.95312C5.53338 6.82718 5.20691 6.71615 4.84233 6.62003L3.6392 6.2919C2.82386 6.06984 2.17756 5.74337 1.70028 5.3125C1.22633 4.88163 0.989347 4.31155 0.989347 3.60227C0.989347 3.01562 1.14844 2.50355 1.46662 2.06605C1.7848 1.62855 2.21567 1.28883 2.75923 1.04688C3.30279 0.80161 3.91596 0.678977 4.59872 0.678977C5.28812 0.678977 5.89631 0.799952 6.4233 1.0419C6.9536 1.28385 7.37121 1.61695 7.67614 2.04119C7.98106 2.46212 8.14015 2.94602 8.15341 3.4929H6.67188ZM11.4956 6.46591V11H10.0091V0.818182H11.4757V4.60653H11.5701C11.7491 4.19555 12.0225 3.86908 12.3904 3.62713C12.7583 3.38518 13.2389 3.2642 13.8322 3.2642C14.3559 3.2642 14.8133 3.37192 15.2044 3.58736C15.5988 3.80279 15.9037 4.12429 16.1191 4.55185C16.3379 4.97609 16.4473 5.50639 16.4473 6.14276V11H14.9608V6.32173C14.9608 5.7616 14.8166 5.32741 14.5282 5.01918C14.2399 4.70762 13.8388 4.55185 13.3251 4.55185C12.9738 4.55185 12.6589 4.62642 12.3805 4.77557C12.1054 4.92472 11.8883 5.14347 11.7292 5.43182C11.5734 5.71686 11.4956 6.06155 11.4956 6.46591ZM21.6475 11.1541C20.9316 11.1541 20.3069 10.9901 19.7733 10.6619C19.2396 10.3338 18.8253 9.87476 18.5304 9.2848C18.2354 8.69484 18.0879 8.00544 18.0879 7.21662C18.0879 6.42448 18.2354 5.73177 18.5304 5.13849C18.8253 4.54522 19.2396 4.08452 19.7733 3.75639C20.3069 3.42827 20.9316 3.2642 21.6475 3.2642C22.3635 3.2642 22.9882 3.42827 23.5218 3.75639C24.0555 4.08452 24.4698 4.54522 24.7647 5.13849C25.0597 5.73177 25.2072 6.42448 25.2072 7.21662C25.2072 8.00544 25.0597 8.69484 24.7647 9.2848C24.4698 9.87476 24.0555 10.3338 23.5218 10.6619C22.9882 10.9901 22.3635 11.1541 21.6475 11.1541ZM21.6525 9.90625C22.1165 9.90625 22.501 9.78362 22.8059 9.53835C23.1109 9.29309 23.3362 8.96662 23.4821 8.55895C23.6312 8.15128 23.7058 7.70218 23.7058 7.21165C23.7058 6.72443 23.6312 6.27699 23.4821 5.86932C23.3362 5.45833 23.1109 5.12855 22.8059 4.87997C22.501 4.63139 22.1165 4.5071 21.6525 4.5071C21.1852 4.5071 20.7974 4.63139 20.4892 4.87997C20.1842 5.12855 19.9572 5.45833 19.8081 5.86932C19.6622 6.27699 19.5893 6.72443 19.5893 7.21165C19.5893 7.70218 19.6622 8.15128 19.8081 8.55895C19.9572 8.96662 20.1842 9.29309 20.4892 9.53835C20.7974 9.78362 21.1852 9.90625 21.6525 9.90625ZM26.8665 13.8636V3.36364H28.3182V4.60156H28.4425C28.5286 4.44247 28.6529 4.25852 28.8153 4.04972C28.9777 3.84091 29.2031 3.65862 29.4915 3.50284C29.7798 3.34375 30.161 3.2642 30.6349 3.2642C31.2514 3.2642 31.8016 3.41998 32.2855 3.73153C32.7694 4.04309 33.1489 4.49219 33.424 5.07884C33.7024 5.66548 33.8416 6.37145 33.8416 7.19673C33.8416 8.02202 33.7041 8.72964 33.429 9.3196C33.1539 9.90625 32.776 10.3587 32.2955 10.6768C31.8149 10.9917 31.2663 11.1491 30.6499 11.1491C30.1858 11.1491 29.8063 11.0713 29.5114 10.9155C29.2197 10.7597 28.991 10.5774 28.8253 10.3686C28.6596 10.1598 28.532 9.9742 28.4425 9.81179H28.353V13.8636H26.8665ZM28.3232 7.18182C28.3232 7.71875 28.401 8.18939 28.5568 8.59375C28.7126 8.99811 28.938 9.31463 29.233 9.54332C29.5279 9.7687 29.8892 9.88139 30.3168 9.88139C30.7609 9.88139 31.1321 9.76373 31.4304 9.52841C31.7287 9.28977 31.9541 8.96662 32.1065 8.55895C32.2623 8.15128 32.3402 7.69223 32.3402 7.18182C32.3402 6.67803 32.264 6.22562 32.1115 5.82457C31.9624 5.42353 31.737 5.10701 31.4354 4.875C31.1371 4.64299 30.7642 4.52699 30.3168 4.52699C29.8859 4.52699 29.5213 4.63802 29.223 4.86009C28.928 5.08215 28.7043 5.39205 28.5518 5.78977C28.3994 6.1875 28.3232 6.65151 28.3232 7.18182ZM47.5495 0.818182V11H46.1376L40.9622 3.53267H40.8677V11H39.3315V0.818182H40.7534L45.9338 8.29545H46.0282V0.818182H47.5495ZM52.8878 11.1541C52.1719 11.1541 51.5471 10.9901 51.0135 10.6619C50.4799 10.3338 50.0656 9.87476 49.7706 9.2848C49.4756 8.69484 49.3281 8.00544 49.3281 7.21662C49.3281 6.42448 49.4756 5.73177 49.7706 5.13849C50.0656 4.54522 50.4799 4.08452 51.0135 3.75639C51.5471 3.42827 52.1719 3.2642 52.8878 3.2642C53.6037 3.2642 54.2285 3.42827 54.7621 3.75639C55.2957 4.08452 55.71 4.54522 56.005 5.13849C56.3 5.73177 56.4474 6.42448 56.4474 7.21662C56.4474 8.00544 56.3 8.69484 56.005 9.2848C55.71 9.87476 55.2957 10.3338 54.7621 10.6619C54.2285 10.9901 53.6037 11.1541 52.8878 11.1541ZM52.8928 9.90625C53.3568 9.90625 53.7412 9.78362 54.0462 9.53835C54.3511 9.29309 54.5765 8.96662 54.7223 8.55895C54.8714 8.15128 54.946 7.70218 54.946 7.21165C54.946 6.72443 54.8714 6.27699 54.7223 5.86932C54.5765 5.45833 54.3511 5.12855 54.0462 4.87997C53.7412 4.63139 53.3568 4.5071 52.8928 4.5071C52.4254 4.5071 52.0376 4.63139 51.7294 4.87997C51.4245 5.12855 51.1974 5.45833 51.0483 5.86932C50.9025 6.27699 50.8295 6.72443 50.8295 7.21165C50.8295 7.70218 50.9025 8.15128 51.0483 8.55895C51.1974 8.96662 51.4245 9.29309 51.7294 9.53835C52.0376 9.78362 52.4254 9.90625 52.8928 9.90625ZM59.5298 11L57.2827 3.36364H58.8189L60.3153 8.97159H60.3899L61.8913 3.36364H63.4276L64.919 8.94673H64.9936L66.4801 3.36364H68.0163L65.7741 11H64.2578L62.7067 5.48651H62.5923L61.0412 11H59.5298Z" fill="#FFAB00"/>
</svg>
