<svg width="30" height="30" viewBox="0 0 30 30" fill="none" xmlns="http://www.w3.org/2000/svg">
<g filter="url(#filter0_d_11502_602)">
<path d="M24.0181 14.8356L23.7727 15.5444H23.7727L24.0181 14.8356ZM24.0181 9.16437L24.2635 9.8731V9.8731L24.0181 9.16437ZM5.98189 14.8356L6.22727 15.5444H6.22727L5.98189 14.8356ZM5.98189 9.16437L5.73652 9.8731L5.73652 9.8731L5.98189 9.16437ZM18.5303 9.53033C18.8232 9.23744 18.8232 8.76256 18.5303 8.46967C18.2374 8.17678 17.7626 8.17678 17.4697 8.46967L18.5303 9.53033ZM11.4697 14.4697C11.1768 14.7626 11.1768 15.2374 11.4697 15.5303C11.7626 15.8232 12.2374 15.8232 12.5303 15.5303L11.4697 14.4697ZM9 20.25C7.20507 20.25 5.75 18.7949 5.75 17H4.25C4.25 19.6234 6.37665 21.75 9 21.75V20.25ZM24.25 17C24.25 18.7949 22.7949 20.25 21 20.25V21.75C23.6234 21.75 25.75 19.6234 25.75 17H24.25ZM21 3.75C22.7949 3.75 24.25 5.20507 24.25 7H25.75C25.75 4.37665 23.6234 2.25 21 2.25V3.75ZM9 2.25C6.37665 2.25 4.25 4.37665 4.25 7H5.75C5.75 5.20507 7.20507 3.75 9 3.75V2.25ZM24.2635 14.1269C23.3815 13.8216 22.75 12.9836 22.75 12H21.25C21.25 13.6424 22.3054 15.0363 23.7727 15.5444L24.2635 14.1269ZM22.75 12C22.75 11.0164 23.3815 10.1784 24.2635 9.8731L23.7727 8.45565C22.3054 8.96367 21.25 10.3576 21.25 12H22.75ZM7.25 12C7.25 12.9836 6.61845 13.8216 5.73652 14.1269L6.22727 15.5444C7.69461 15.0363 8.75 13.6424 8.75 12H7.25ZM5.73652 9.8731C6.61845 10.1784 7.25 11.0164 7.25 12H8.75C8.75 10.3576 7.69462 8.96367 6.22727 8.45565L5.73652 9.8731ZM25.75 8V7H24.25V8H25.75ZM24.25 16V17H25.75V16H24.25ZM4.25 16V17H5.75V16H4.25ZM5.75 8V7H4.25V8H5.75ZM21 20.25H9V21.75H21V20.25ZM21 2.25H9V3.75H21V2.25ZM5.73652 14.1269C5.05785 14.3619 4.25 14.9975 4.25 16H5.75C5.75 15.9441 5.77081 15.8708 5.85172 15.7813C5.9366 15.6873 6.06974 15.5989 6.22727 15.5444L5.73652 14.1269ZM24.2635 9.8731C24.9422 9.63813 25.75 9.00246 25.75 8H24.25C24.25 8.05587 24.2292 8.12917 24.1483 8.21871C24.0634 8.31265 23.9303 8.40111 23.7727 8.45565L24.2635 9.8731ZM6.22727 8.45565C6.06974 8.40111 5.9366 8.31265 5.85172 8.21871C5.77081 8.12917 5.75 8.05587 5.75 8H4.25C4.25 9.00246 5.05785 9.63813 5.73652 9.8731L6.22727 8.45565ZM23.7727 15.5444C23.9303 15.5989 24.0634 15.6873 24.1483 15.7813C24.2292 15.8708 24.25 15.9441 24.25 16H25.75C25.75 14.9975 24.9422 14.3619 24.2635 14.1269L23.7727 15.5444ZM12.25 9C12.25 9.13807 12.1381 9.25 12 9.25V10.75C12.9665 10.75 13.75 9.9665 13.75 9H12.25ZM12 9.25C11.8619 9.25 11.75 9.13807 11.75 9H10.25C10.25 9.9665 11.0335 10.75 12 10.75V9.25ZM11.75 9C11.75 8.86193 11.8619 8.75 12 8.75V7.25C11.0335 7.25 10.25 8.0335 10.25 9H11.75ZM12 8.75C12.1381 8.75 12.25 8.86193 12.25 9H13.75C13.75 8.0335 12.9665 7.25 12 7.25V8.75ZM18.25 15C18.25 15.1381 18.1381 15.25 18 15.25V16.75C18.9665 16.75 19.75 15.9665 19.75 15H18.25ZM18 15.25C17.8619 15.25 17.75 15.1381 17.75 15H16.25C16.25 15.9665 17.0335 16.75 18 16.75V15.25ZM17.75 15C17.75 14.8619 17.8619 14.75 18 14.75V13.25C17.0335 13.25 16.25 14.0335 16.25 15H17.75ZM18 14.75C18.1381 14.75 18.25 14.8619 18.25 15H19.75C19.75 14.0335 18.9665 13.25 18 13.25V14.75ZM17.4697 8.46967L11.4697 14.4697L12.5303 15.5303L18.5303 9.53033L17.4697 8.46967Z" fill="#FEFEFE"/>
</g>
<defs>
<filter id="filter0_d_11502_602" x="-1" y="0" width="32" height="32" filterUnits="userSpaceOnUse" color-interpolation-filters="sRGB">
<feFlood flood-opacity="0" result="BackgroundImageFix"/>
<feColorMatrix in="SourceAlpha" type="matrix" values="0 0 0 0 0 0 0 0 0 0 0 0 0 0 0 0 0 0 127 0" result="hardAlpha"/>
<feOffset dy="4"/>
<feGaussianBlur stdDeviation="2"/>
<feComposite in2="hardAlpha" operator="out"/>
<feColorMatrix type="matrix" values="0 0 0 0 0 0 0 0 0 0 0 0 0 0 0 0 0 0 0.25 0"/>
<feBlend mode="normal" in2="BackgroundImageFix" result="effect1_dropShadow_11502_602"/>
<feBlend mode="normal" in="SourceGraphic" in2="effect1_dropShadow_11502_602" result="shape"/>
</filter>
</defs>
</svg>
